<svg xmlns="http://www.w3.org/2000/svg" viewBox="0 0 1000 950" width="1000" height="950"><g transform="translate(317.0 258.0) rotate(0.0 314.0 314.0) translate(0.0 29.73949659597329) scale(1.896707943219571 1.896707943219571)"><svg width="331.1" height="315.42" viewBox="0 15.68 331.1 315.42"><g fill="#383a48"><circle cx="326.1" cy="5" r="5"/><circle cx="326.1" cy="29.7" r="5"/><circle cx="326.1" cy="54.4" r="5"/><circle cx="326.1" cy="79.1" r="5"/><circle cx="326.1" cy="103.8" r="5"/><circle cx="326.1" cy="128.5" r="5"/><circle cx="326.1" cy="153.2" r="5"/><circle cx="326.1" cy="177.9" r="5"/><circle cx="326.1" cy="202.6" r="5"/><circle cx="326.1" cy="227.3" r="5"/><circle cx="326.1" cy="252" r="5"/><circle cx="326.1" cy="276.7" r="5"/><circle cx="326.1" cy="301.4" r="5"/><circle cx="326.1" cy="326.1" r="5"/><circle cx="301.4" cy="5" r="5"/><circle cx="301.4" cy="29.7" r="5"/><circle cx="301.4" cy="54.4" r="5"/><circle cx="301.4" cy="79.1" r="5"/><circle cx="301.4" cy="103.8" r="5"/><circle cx="301.4" cy="128.5" r="5"/><circle cx="301.4" cy="153.2" r="5"/><circle cx="301.4" cy="177.9" r="5"/><circle cx="301.4" cy="202.6" r="5"/><circle cx="301.4" cy="227.3" r="5"/><circle cx="301.4" cy="252" r="5"/><circle cx="301.4" cy="276.7" r="5"/><circle cx="301.4" cy="301.4" r="5"/><circle cx="301.4" cy="326.1" r="5"/><circle cx="276.7" cy="5" r="5"/><circle cx="276.7" cy="29.7" r="5"/><circle cx="276.7" cy="54.4" r="5"/><circle cx="276.7" cy="79.1" r="5"/><circle cx="276.7" cy="103.8" r="5"/><circle cx="276.7" cy="128.5" r="5"/><circle cx="276.7" cy="153.2" r="5"/><circle cx="276.7" cy="177.9" r="5"/><circle cx="276.7" cy="202.6" r="5"/><circle cx="276.7" cy="227.3" r="5"/><circle cx="276.7" cy="252" r="5"/><circle cx="276.7" cy="276.7" r="5"/><circle cx="276.7" cy="301.4" r="5"/><circle cx="276.7" cy="326.1" r="5"/><circle cx="252" cy="5" r="5"/><circle cx="252" cy="29.7" r="5"/><circle cx="252" cy="54.4" r="5"/><circle cx="252" cy="79.1" r="5"/><circle cx="252" cy="103.8" r="5"/><circle cx="252" cy="128.5" r="5"/><circle cx="252" cy="153.2" r="5"/><circle cx="252" cy="177.9" r="5"/><circle cx="252" cy="202.6" r="5"/><circle cx="252" cy="227.3" r="5"/><circle cx="252" cy="252" r="5"/><circle cx="252" cy="276.7" r="5"/><circle cx="252" cy="301.4" r="5"/><circle cx="252" cy="326.1" r="5"/><circle cx="227.3" cy="5" r="5"/><circle cx="227.3" cy="29.7" r="5"/><circle cx="227.3" cy="54.4" r="5"/><circle cx="227.3" cy="79.1" r="5"/><circle cx="227.3" cy="103.8" r="5"/><circle cx="227.3" cy="128.5" r="5"/><circle cx="227.3" cy="153.2" r="5"/><circle cx="227.3" cy="177.9" r="5"/><circle cx="227.3" cy="202.6" r="5"/><circle cx="227.3" cy="227.3" r="5"/><circle cx="227.3" cy="252" r="5"/><circle cx="227.3" cy="276.7" r="5"/><circle cx="227.3" cy="301.4" r="5"/><circle cx="227.3" cy="326.1" r="5"/><circle cx="202.6" cy="5" r="5"/><circle cx="202.6" cy="29.7" r="5"/><circle cx="202.6" cy="54.4" r="5"/><circle cx="202.6" cy="79.1" r="5"/><circle cx="202.6" cy="103.8" r="5"/><circle cx="202.6" cy="128.5" r="5"/><circle cx="202.6" cy="153.2" r="5"/><circle cx="202.6" cy="177.9" r="5"/><circle cx="202.6" cy="202.6" r="5"/><circle cx="202.6" cy="227.3" r="5"/><circle cx="202.6" cy="252" r="5"/><circle cx="202.6" cy="276.7" r="5"/><circle cx="202.6" cy="301.4" r="5"/><circle cx="202.6" cy="326.1" r="5"/><circle cx="177.9" cy="5" r="5"/><circle cx="177.9" cy="29.7" r="5"/><circle cx="177.9" cy="54.4" r="5"/><circle cx="177.9" cy="79.1" r="5"/><circle cx="177.9" cy="103.8" r="5"/><circle cx="177.9" cy="128.5" r="5"/><circle cx="177.9" cy="153.2" r="5"/><circle cx="177.9" cy="177.9" r="5"/><circle cx="177.9" cy="202.6" r="5"/><circle cx="177.9" cy="227.3" r="5"/><circle cx="177.9" cy="252" r="5"/><circle cx="177.9" cy="276.7" r="5"/><circle cx="177.9" cy="301.4" r="5"/><circle cx="177.9" cy="326.1" r="5"/><circle cx="153.2" cy="5" r="5"/><circle cx="153.2" cy="29.7" r="5"/><circle cx="153.2" cy="54.4" r="5"/><circle cx="153.2" cy="79.1" r="5"/><circle cx="153.2" cy="103.8" r="5"/><circle cx="153.2" cy="128.5" r="5"/><circle cx="153.2" cy="153.2" r="5"/><circle cx="153.2" cy="177.9" r="5"/><circle cx="153.2" cy="202.6" r="5"/><circle cx="153.2" cy="227.3" r="5"/><circle cx="153.2" cy="252" r="5"/><circle cx="153.2" cy="276.7" r="5"/><circle cx="153.2" cy="301.4" r="5"/><circle cx="153.2" cy="326.1" r="5"/><circle cx="128.5" cy="5" r="5"/><circle cx="128.5" cy="29.7" r="5"/><circle cx="128.5" cy="54.4" r="5"/><circle cx="128.5" cy="79.1" r="5"/><circle cx="128.5" cy="103.8" r="5"/><circle cx="128.5" cy="128.5" r="5"/><circle cx="128.5" cy="153.2" r="5"/><circle cx="128.5" cy="177.9" r="5"/><circle cx="128.5" cy="202.6" r="5"/><circle cx="128.5" cy="227.3" r="5"/><circle cx="128.5" cy="252" r="5"/><circle cx="128.5" cy="276.7" r="5"/><circle cx="128.5" cy="301.4" r="5"/><circle cx="128.5" cy="326.1" r="5"/><circle cx="103.8" cy="5" r="5"/><circle cx="103.8" cy="29.7" r="5"/><circle cx="103.8" cy="54.4" r="5"/><circle cx="103.8" cy="79.1" r="5"/><circle cx="103.8" cy="103.8" r="5"/><circle cx="103.8" cy="128.5" r="5"/><circle cx="103.8" cy="153.2" r="5"/><circle cx="103.8" cy="177.9" r="5"/><circle cx="103.8" cy="202.6" r="5"/><circle cx="103.8" cy="227.3" r="5"/><circle cx="103.8" cy="252" r="5"/><circle cx="103.8" cy="276.7" r="5"/><circle cx="103.8" cy="301.4" r="5"/><circle cx="103.8" cy="326.1" r="5"/><circle cx="79.1" cy="5" r="5"/><circle cx="79.1" cy="29.7" r="5"/><circle cx="79.1" cy="54.4" r="5"/><circle cx="79.1" cy="79.1" r="5"/><circle cx="79.1" cy="103.8" r="5"/><circle cx="79.1" cy="128.5" r="5"/><circle cx="79.1" cy="153.2" r="5"/><circle cx="79.1" cy="177.9" r="5"/><circle cx="79.1" cy="202.6" r="5"/><circle cx="79.1" cy="227.3" r="5"/><circle cx="79.1" cy="252" r="5"/><circle cx="79.1" cy="276.7" r="5"/><circle cx="79.1" cy="301.4" r="5"/><circle cx="79.1" cy="326.1" r="5"/><circle cx="54.4" cy="5" r="5"/><circle cx="54.4" cy="29.7" r="5"/><circle cx="54.4" cy="54.4" r="5"/><circle cx="54.4" cy="79.1" r="5"/><circle cx="54.4" cy="103.8" r="5"/><circle cx="54.4" cy="128.5" r="5"/><circle cx="54.4" cy="153.2" r="5"/><circle cx="54.4" cy="177.9" r="5"/><circle cx="54.4" cy="202.6" r="5"/><circle cx="54.4" cy="227.3" r="5"/><circle cx="54.4" cy="252" r="5"/><circle cx="54.4" cy="276.7" r="5"/><circle cx="54.4" cy="301.4" r="5"/><circle cx="54.4" cy="326.1" r="5"/><circle cx="29.7" cy="5" r="5"/><circle cx="29.7" cy="29.7" r="5"/><circle cx="29.7" cy="54.4" r="5"/><circle cx="29.7" cy="79.1" r="5"/><circle cx="29.7" cy="103.8" r="5"/><circle cx="29.7" cy="128.5" r="5"/><circle cx="29.7" cy="153.2" r="5"/><circle cx="29.7" cy="177.9" r="5"/><circle cx="29.7" cy="202.6" r="5"/><circle cx="29.7" cy="227.3" r="5"/><circle cx="29.7" cy="252" r="5"/><circle cx="29.7" cy="276.7" r="5"/><circle cx="29.7" cy="301.4" r="5"/><circle cx="29.7" cy="326.1" r="5"/><circle cx="5" cy="5" r="5"/><circle cx="5" cy="29.7" r="5"/><circle cx="5" cy="54.4" r="5"/><circle cx="5" cy="79.1" r="5"/><circle cx="5" cy="103.8" r="5"/><circle cx="5" cy="128.5" r="5"/><circle cx="5" cy="153.2" r="5"/><circle cx="5" cy="177.9" r="5"/><circle cx="5" cy="202.6" r="5"/><circle cx="5" cy="227.3" r="5"/><circle cx="5" cy="252" r="5"/><circle cx="5" cy="276.7" r="5"/><circle cx="5" cy="301.4" r="5"/><circle cx="5" cy="326.1" r="5"/></g></svg></g><g transform="translate(115.0 524.0) rotate(-28.5810926054124 125.0 193.0) scale(0.7291520836249942 0.7317230371434745)"><svg width="342.864" height="527.522" viewBox="0 0 342.864 527.522"><path d="M337.864 355.675c-.414-91.91-167.26-346.526-167.26-346.526S4.587 264.593 5.001 356.503s74.936 166.432 166.846 166.018 166.017-74.936 166.017-166.846z" fill="#85cebe"/><g fill="#393b49"><path d="M171.089 527.522C77.101 527.522.426 450.977.001 356.525-.175 317.548 27.84 246.7 83.267 145.949c41.066-74.647 82.73-138.885 83.146-139.525L170.587 0l4.199 6.408c.418.638 42.29 64.667 83.663 139.108 55.838 100.467 84.239 171.167 84.415 210.136v.023c0 45.787-17.756 88.852-49.998 121.26-32.247 32.414-75.219 50.379-120.997 50.585-.259.002-.521.002-.78.002zm-.467-509.134C144.918 58.763 9.634 275.187 10.001 356.48c.402 89.198 72.971 161.458 161.823 161.04 88.798-.4 161.04-73.004 161.04-161.846-.384-81.312-136.403-297.04-162.242-337.286z"/><path d="m165.597 9.243 9.998-.177 9.085 513.13-9.998.176z"/><path d="m86.126 149.204 6.358-7.718 84.946 69.977-6.358 7.718zm83.044-13.187 46.077-52.226 7.5 6.616-46.078 52.226zM17.96 293.228l5.331-8.461 156.71 98.738-5.33 8.46zm154.725 12.889 121.37-90.675 5.986 8.01-121.371 90.676zm5.259 155.43 149.242-56.524 3.542 9.352-149.242 56.524z"/></g></svg></g><g transform="translate(491.0 29.0) rotate(-177.5059406613169 152.5 90.0) scale(0.7493857493857494 0.7503126302626094)"><svg width="407" height="239.9" viewBox="0 0 407 239.9"><path d="M115.6 239.9c-7.2 0-14.5-.5-21.9-1.5-31.2-4.2-62.9-17.6-91.7-38.6-2.2-1.6-2.7-4.8-1.1-7s4.8-2.7 7-1.1c27.4 20.1 57.5 32.8 87.1 36.8 27.4 3.7 53.6 0 75.9-10.7 14.8-7.1 27.1-17 36.5-29-13-.4-26.1-2-39.2-4.9-21.6-4.8-38.5-21.1-44-42.5-5.4-21.3 1.5-43.6 18.1-58 17.8-15.6 42.1-18.9 63.5-8.7 21.3 10.2 33.9 31.1 32.9 54.7-.7 17.9-5.1 34.5-12.7 49.1 44.1-3 85.7-21.4 119-53.5 18.4-17.7 32.9-38.4 42-59.9 8.9-21.1 11.9-41.5 8.8-59-.5-2.7 1.3-5.3 4-5.8s5.3 1.3 5.8 4c7.1 39.5-13.9 89.7-53.6 127.9-36.9 35.5-83.2 55-132.1 56.7-10.8 16-25.8 29.1-44.6 38.1-18 8.4-38.3 12.9-59.7 12.9zm64.8-161.1c-11.3 0-22.5 4.1-31.5 12-13.9 12.2-19.5 30.1-15 48 4.6 18 18.2 31.2 36.4 35.2 14.7 3.2 29.4 4.8 43.9 4.7 8.7-14.5 13.7-31.4 14.4-49.9.8-19.5-9.6-36.8-27.2-45.2-6.7-3.2-13.9-4.8-21-4.8z" fill="#383a48"/></svg></g><g transform="translate(20.0 90.0) rotate(0.0 168.0 168.0) scale(3.4963579604578565 3.4963579604578565)"><svg width="96.1" height="96.1" viewBox="0 0 96.1 96.1"><g fill="#F6E258"><path d="M48 28.8c-2.8 0-5-2.2-5-5V5c0-2.8 2.2-5 5-5s5 2.2 5 5v18.8c0 2.8-2.2 5-5 5zm0 67.3c-2.8 0-5-2.2-5-5V72.4c0-2.8 2.2-5 5-5s5 2.2 5 5v18.7c0 2.8-2.2 5-5 5zm-24.3-43H5c-2.8 0-5-2.2-5-5s2.2-5 5-5h18.7c2.8 0 5 2.2 5 5s-2.2 5-5 5zm67.4 0H72.3c-2.8 0-5-2.2-5-5s2.2-5 5-5h18.8c2.8 0 5 2.2 5 5s-2.2 5-5 5zM30.8 35.9c-1.3 0-2.6-.5-3.5-1.5L14.1 21.1c-1.9-2-1.9-5.1 0-7.1 2-1.9 5.1-1.9 7.1 0l13.2 13.3c1.9 2 1.9 5.1 0 7.1-1.1 1-2.3 1.5-3.6 1.5zm47.7 47.6c-1.3 0-2.5-.5-3.5-1.5L61.7 68.8c-2-1.9-2-5.1 0-7.1 1.9-2 5.1-2 7.1 0L82 75c2 1.9 2 5.1 0 7.1-.9.9-2.2 1.4-3.5 1.4zm-60.9 0c-1.3 0-2.6-.5-3.5-1.5-2-2-2-5.1 0-7.1l13.2-13.2c2-2 5.1-2 7.1 0s2 5.1 0 7.1L21.1 82c-.9 1-2.2 1.5-3.5 1.5zm47.6-47.6c-1.3 0-2.6-.5-3.5-1.5-2-2-2-5.1 0-7.1L75 14.1c2-2 5.1-2 7.1 0s2 5.1 0 7.1L68.7 34.4c-.9 1-2.2 1.5-3.5 1.5z"/></g></svg></g><g transform="translate(128.0 160.0) rotate(0.0 333.0 176.0) scale(0.9314685314685315 0.9312169312169312)"><svg width="715" height="378" viewBox="0 0 715 378"><path d="M609.8 157.2C604 72.2 533.2 5 446.7 5 391.4 5 342.6 32.4 313 74.5c-20.9-17.1-47.7-27.4-76.9-27.4-63.2 0-115.1 48.3-120.9 109.9H113C53.3 157 5 205.4 5 265c0 59.7 48.4 108 108 108h489c59.7 0 108-48.4 108-108 .1-57.1-44.1-103.8-100.2-107.8z" fill="#EEBED3"/><g fill="#EEBED3"><path d="M602 378H113C50.7 378 0 327.3 0 265c0-61.5 49.5-111.8 110.7-113 3.8-29.4 17.9-56.5 40-76.8C174.1 53.8 204.4 42 236.1 42c27.4 0 54.1 8.9 75.9 25.3C343.7 25.1 393.7 0 446.7 0c43 0 83.9 16.2 115.2 45.6 30.1 28.3 48.7 66.1 52.5 107 26.8 2.9 51.6 15.3 70.2 35.2 19.6 21 30.4 48.4 30.4 77.2 0 62.3-50.7 113-113 113zM113 162c-56.8 0-103 46.2-103 103s46.2 103 103 103h489c56.8 0 103-46.2 103-103 0-26.3-9.8-51.3-27.7-70.4-17.8-19.1-41.9-30.6-67.9-32.4-2.5-.2-4.5-2.2-4.6-4.6-2.7-40-20.4-77.2-49.7-104.7-29.5-27.7-68-42.9-108.4-42.9-51.5 0-99.9 25.2-129.6 67.4-.8 1.1-2 1.9-3.4 2.1s-2.8-.2-3.8-1.1c-20.7-16.9-46.9-26.3-73.7-26.3-29.2 0-57.1 10.8-78.6 30.5-21.4 19.6-34.6 46.1-37.3 74.8-.2 2.6-2.4 4.5-5 4.5H113z"/><path d="M132.2 161.9h-16.9c-2.8 0-5-2.2-5-5s2.2-5 5-5h16.9c2.8 0 5 2.2 5 5s-2.2 5-5 5zm477.6 15c-2.8 0-5-2.2-5-5v-14.7c0-2.8 2.2-5 5-5s5 2.2 5 5v14.7c0 2.8-2.2 5-5 5zM323.4 88.1c-1.1 0-2.3-.4-3.2-1.2l-10.3-8.6c-2.1-1.8-2.4-4.9-.6-7s4.9-2.4 7-.6l10.3 8.6c2.1 1.8 2.4 4.9.6 7-1 1.2-2.4 1.8-3.8 1.8z"/></g></svg></g><g transform="translate(231.0 196.0) rotate(0.0 213.0 346.5) scale(0.806572559087546 0.8061154031554125)"><svg width="528.161" height="859.678" viewBox="0 0 528.161 859.678"><path d="m523.16 54.268-13.24 41.25-124.834-40.095a28.518 28.518 0 0 0-35.862 18.43l-39.14 121.91-18.302 56.958v.014l-5.573 17.36a62.867 62.867 0 0 1-56.444 35.165h-.584l36.703-114.343 2.508-7.796L314.46 39.644a49.895 49.895 0 0 1 62.758-32.242z" fill="#f3f6e6"/><path d="m287.964 248.898-1.75 21.2a62.867 62.867 0 0 1-56.445 35.163h-.584l25.499-64.615c-2.417 13.23 4.036 21.252 9.735 23.152 8.366 2.789 18.711-4.675 23.545-14.9z" fill="#383a47"/><path d="M435.644 387.617a25.41 25.41 0 0 1-6.514 49.973H30.4a25.414 25.414 0 0 1-6.514-49.973 25.821 25.821 0 0 1 6.514-.841h398.73a25.821 25.821 0 0 1 6.514.84z" fill="#aac4fa"/><path d="M435.658 385.407c0 .742 0 1.469-.014 2.21a25.821 25.821 0 0 0-6.514-.841H30.4a25.821 25.821 0 0 0-6.514.84c-.014-.74-.014-1.467-.014-2.209 0-113.173 91.308-205.009 204.268-205.878a62.877 62.877 0 0 0 1.04 125.73h.585a62.867 62.867 0 0 0 56.444-35.163 61.872 61.872 0 0 0 5.573-17.361v-.014l18.302-56.958a205.953 205.953 0 0 1 125.574 189.644z" fill="#aac4fa"/><path d="m428.93 438.003-85.521 416.675H116.121L30.599 438.003h398.274z" fill="#f3f6e6"/><path d="M231.39 179.529a62.568 62.568 0 0 1 34.493 11.388L229.18 305.26a62.877 62.877 0 0 1-1.04-125.73c.542-.015 1.083-.015 1.625-.015s1.083 0 1.625.015z" fill="#D0D1E4"/><path d="M30.666 443.015a5.02 5.02 0 0 1-4.796-3.569 9.294 9.294 0 0 1-.211-.85 5.034 5.034 0 1 1 5.007 4.42zm398.21-.01a5.244 5.244 0 1 1 5.002-4.441 9.321 9.321 0 0 1-.208.852 5.002 5.002 0 0 1-4.794 3.589zm6.77-50.388-.094-.001a5 5 0 0 1-4.907-5.091c.013-.71.013-1.407.013-2.118a200.659 200.659 0 0 0-122.527-185.04 5 5 0 1 1 3.905-9.207 210.642 210.642 0 0 1 128.622 194.247c0 .772 0 1.53-.015 2.302a5 5 0 0 1-4.997 4.908zm-411.762 0a5 5 0 0 1-4.997-4.901c-.015-.775-.015-1.534-.015-2.309a210.883 210.883 0 0 1 209.23-210.878 5 5 0 1 1 .076 10c-109.897.845-199.306 90.96-199.306 200.878 0 .708 0 1.403.013 2.111a5 5 0 0 1-4.9 5.098h-.1z" fill="#383a47"/><path d="M268.398 188.121a5.03 5.03 0 0 1-.934-.087 202.502 202.502 0 0 0-36.108-3.506 5 5 0 1 1 .068-10 212.531 212.531 0 0 1 37.896 3.68 5 5 0 0 1-.922 9.913z" fill="#383a47"/><path d="M229.765 310.26h-.585a67.877 67.877 0 0 1-1.168-135.73c1.16-.03 2.336-.03 3.51 0a67.517 67.517 0 0 1 37.238 12.298 5 5 0 1 1-5.754 8.179 57.549 57.549 0 0 0-31.744-10.48 52.691 52.691 0 0 0-1.497-.013c-.496 0-.995 0-1.493.013a57.877 57.877 0 0 0 .954 115.733h.54a57.528 57.528 0 0 0 51.956-32.37 56.845 56.845 0 0 0 5.126-15.97 5 5 0 0 1 9.867 1.63 67.85 67.85 0 0 1-66.95 56.71zM429.13 442.59H30.4a30.414 30.414 0 0 1-7.8-59.805 30.935 30.935 0 0 1 7.8-1.01h398.73a30.897 30.897 0 0 1 7.774 1.003l.02.005a30.41 30.41 0 0 1-7.795 59.807zM30.4 391.776a20.875 20.875 0 0 0-5.254.68 20.452 20.452 0 0 0-9.17 5.296A20.22 20.22 0 0 0 10 412.176a20.43 20.43 0 0 0 20.4 20.414h398.73a20.41 20.41 0 0 0 5.244-40.137 20.885 20.885 0 0 0-5.245-.677z" fill="#383a47"/><path d="M343.409 859.678H116.12a4.999 4.999 0 0 1-4.898-3.994l-85.52-416.676a4.999 4.999 0 0 1 4.897-6.005H428.93a4.999 4.999 0 0 1 4.898 6.005l-85.522 416.676a4.999 4.999 0 0 1-4.897 3.994zm-223.21-10H339.33l83.468-406.675H36.73zM229.181 310.26a5.004 5.004 0 0 1-4.761-6.529l39.212-122.142L309.7 38.115a54.957 54.957 0 0 1 69.048-35.474L524.69 49.507a5 5 0 0 1 3.232 6.29l-13.24 41.25a5 5 0 0 1-6.29 3.231L383.556 60.183a23.557 23.557 0 0 0-29.572 15.199l-39.14 121.91-18.245 56.776c-.017.066-.037.13-.057.195l-5.573 17.361a5 5 0 1 1-9.521-3.056l5.513-17.18q.028-.099.06-.197l18.3-56.957 39.141-121.91a33.57 33.57 0 0 1 42.149-21.663l120.075 38.567L516.872 57.5 375.69 12.163a44.95 44.95 0 0 0-56.47 29.01l-48.577 151.276-36.702 114.339a5.002 5.002 0 0 1-4.76 3.473z" fill="#383a47"/><g fill="#383a48"><ellipse cx="132.465" cy="816.735" rx="4.295" ry="4.281"/><ellipse cx="132.465" cy="837.883" rx="4.295" ry="4.281"/><ellipse cx="153.682" cy="816.735" rx="4.295" ry="4.281"/><ellipse cx="153.682" cy="837.883" rx="4.295" ry="4.281"/><ellipse cx="174.899" cy="816.735" rx="4.295" ry="4.281"/><ellipse cx="174.899" cy="837.883" rx="4.295" ry="4.281"/><ellipse cx="196.116" cy="816.735" rx="4.295" ry="4.281"/><ellipse cx="196.116" cy="837.883" rx="4.295" ry="4.281"/><ellipse cx="217.333" cy="816.735" rx="4.295" ry="4.281"/><ellipse cx="217.333" cy="837.883" rx="4.295" ry="4.281"/><ellipse cx="238.55" cy="816.735" rx="4.295" ry="4.281"/><ellipse cx="238.55" cy="837.883" rx="4.295" ry="4.281"/><ellipse cx="259.767" cy="795.587" rx="4.295" ry="4.281"/><ellipse cx="259.767" cy="816.735" rx="4.295" ry="4.281"/><ellipse cx="259.767" cy="837.883" rx="4.295" ry="4.281"/><ellipse cx="280.984" cy="774.439" rx="4.295" ry="4.281"/><ellipse cx="280.984" cy="795.587" rx="4.295" ry="4.281"/><ellipse cx="280.984" cy="816.735" rx="4.295" ry="4.281"/><ellipse cx="280.984" cy="837.883" rx="4.295" ry="4.281"/><ellipse cx="302.202" cy="753.29" rx="4.295" ry="4.281"/><ellipse cx="302.202" cy="774.439" rx="4.295" ry="4.281"/><ellipse cx="302.202" cy="795.587" rx="4.295" ry="4.281"/><ellipse cx="302.202" cy="816.735" rx="4.295" ry="4.281"/><ellipse cx="302.202" cy="837.883" rx="4.295" ry="4.281"/><ellipse cx="323.419" cy="689.846" rx="4.295" ry="4.281"/><ellipse cx="323.419" cy="710.994" rx="4.295" ry="4.281"/><ellipse cx="323.419" cy="732.142" rx="4.295" ry="4.281"/><ellipse cx="323.419" cy="753.29" rx="4.295" ry="4.281"/><ellipse cx="323.419" cy="774.439" rx="4.295" ry="4.281"/><ellipse cx="323.419" cy="795.587" rx="4.295" ry="4.281"/><ellipse cx="323.419" cy="816.735" rx="4.295" ry="4.281"/><ellipse cx="323.419" cy="837.883" rx="4.295" ry="4.281"/><ellipse cx="344.636" cy="584.105" rx="4.295" ry="4.281"/><ellipse cx="344.636" cy="605.253" rx="4.295" ry="4.281"/><ellipse cx="344.636" cy="626.401" rx="4.295" ry="4.281"/><ellipse cx="344.636" cy="647.549" rx="4.295" ry="4.281"/><ellipse cx="344.636" cy="668.698" rx="4.295" ry="4.281"/><ellipse cx="323.419" cy="605.253" rx="4.295" ry="4.281"/><ellipse cx="323.419" cy="626.401" rx="4.295" ry="4.281"/><ellipse cx="323.419" cy="647.549" rx="4.295" ry="4.281"/><ellipse cx="323.419" cy="668.698" rx="4.295" ry="4.281"/><ellipse cx="344.636" cy="689.846" rx="4.295" ry="4.281"/><ellipse cx="344.636" cy="710.994" rx="4.295" ry="4.281"/><ellipse cx="344.636" cy="732.142" rx="4.295" ry="4.281"/><ellipse cx="344.636" cy="753.29" rx="4.295" ry="4.281"/><ellipse cx="344.636" cy="774.439" rx="4.295" ry="4.281"/><ellipse cx="344.636" cy="795.587" rx="4.295" ry="4.281"/><ellipse cx="344.636" cy="816.735" rx="4.295" ry="4.281"/><ellipse cx="344.636" cy="837.883" rx="4.295" ry="4.281"/><ellipse cx="365.853" cy="457.216" rx="4.295" ry="4.281"/><ellipse cx="365.853" cy="478.364" rx="4.295" ry="4.281"/><ellipse cx="365.853" cy="499.512" rx="4.295" ry="4.281"/><ellipse cx="365.853" cy="520.66" rx="4.295" ry="4.281"/><ellipse cx="365.853" cy="541.808" rx="4.295" ry="4.281"/><ellipse cx="365.853" cy="562.957" rx="4.295" ry="4.281"/><ellipse cx="365.853" cy="584.105" rx="4.295" ry="4.281"/><ellipse cx="365.853" cy="605.253" rx="4.295" ry="4.281"/><ellipse cx="365.853" cy="626.401" rx="4.295" ry="4.281"/><ellipse cx="365.853" cy="647.549" rx="4.295" ry="4.281"/><ellipse cx="365.853" cy="668.698" rx="4.295" ry="4.281"/><ellipse cx="365.853" cy="689.846" rx="4.295" ry="4.281"/><ellipse cx="365.853" cy="710.994" rx="4.295" ry="4.281"/><ellipse cx="387.07" cy="457.216" rx="4.295" ry="4.281"/><ellipse cx="387.07" cy="478.364" rx="4.295" ry="4.281"/><ellipse cx="387.07" cy="499.512" rx="4.295" ry="4.281"/><ellipse cx="387.07" cy="520.66" rx="4.295" ry="4.281"/><ellipse cx="387.07" cy="541.808" rx="4.295" ry="4.281"/><ellipse cx="387.07" cy="562.957" rx="4.295" ry="4.281"/><ellipse cx="387.07" cy="584.105" rx="4.295" ry="4.281"/><ellipse cx="387.07" cy="605.253" rx="4.295" ry="4.281"/><ellipse cx="408.287" cy="457.216" rx="4.295" ry="4.281"/><ellipse cx="408.287" cy="478.364" rx="4.295" ry="4.281"/><ellipse cx="408.287" cy="499.512" rx="4.295" ry="4.281"/><ellipse cx="408.287" cy="520.66" rx="4.295" ry="4.281"/></g><path d="m276.401 291.714 75.218-72.29-39.945-28.614z" fill="#383a47"/></svg></g><g transform="translate(451.0 407.0) rotate(23.89348872401545 156.5 275.0) scale(0.7308652985132915 0.7300346571343785)"><svg width="428.259" height="753.389" viewBox="0 0 428.259 753.389"><path d="M319.495 110.363c0 3.07-.13 6.12-.4 9.12-.02.38-.05.76-.09 1.13-.27 2.78-.64 5.52-1.13 8.23a105.378 105.378 0 0 1-207.48 0c-.49-2.71-.86-5.45-1.13-8.23-.04-.37-.07-.75-.09-1.13-.27-3-.4-6.05-.4-9.12a105.36 105.36 0 0 1 210.72 0z" fill="#aac4fa"/><path d="M317.875 128.843a105.378 105.378 0 0 1-207.48 0 103.488 103.488 0 0 1 12.65-.76c38.87 0 67.79 8.68 91.08 40.24 20.79-32.08 52.22-40.24 91.09-40.24a103.662 103.662 0 0 1 12.66.76z" fill="#383a47"/><path d="M214.13 220.721a110.36 110.36 0 1 1 110.36-110.36 110.486 110.486 0 0 1-110.36 110.36zm0-210.721a100.36 100.36 0 1 0 100.36 100.36A100.474 100.474 0 0 0 214.13 10z" fill="#383a47"/><circle cx="305.212" cy="254.338" fill="#eebdd2" r="105.361"/><path d="M305.213 364.7a110.36 110.36 0 1 1 110.36-110.362A110.486 110.486 0 0 1 305.213 364.7zm0-210.722a100.36 100.36 0 1 0 100.36 100.36 100.474 100.474 0 0 0-100.36-100.36z" fill="#383a47"/><circle cx="123.047" cy="254.338" fill="#f3f6e6" r="105.361"/><path d="M123.047 364.7a110.36 110.36 0 1 1 110.361-110.362A110.486 110.486 0 0 1 123.047 364.7zm0-210.722a100.36 100.36 0 1 0 100.361 100.36 100.474 100.474 0 0 0-100.361-100.36z" fill="#383a47"/><path d="M419.392 315.46a24.457 24.457 0 0 1 1.494 23.699l-18.356 39.134-8.742 18.634-10.872 23.158-38.036 81.006-6.6 14.045-30.47 64.963L296 605.254l-21.929 46.738-26.953 57.438-12.048 25.657c-8.32 17.736-33.553 17.736-41.885 0l-12.882-27.469-27.125-57.795-21.769-46.368-8.596-18.344-33.87-72.13-6.428-13.689-34.347-73.19-14.534-30.986-8.914-18.966v-.013L7.368 339.16a24.646 24.646 0 0 1 22.325-35.14h368.869a24.485 24.485 0 0 1 20.83 11.44z" fill="#f6e258"/><g fill="#f3f6e7"><path d="M274.071 656.997a4.983 4.983 0 0 1-3.535-1.465L44.638 429.634a5 5 0 1 1 7.07-7.07L277.606 648.46a5 5 0 0 1-3.535 8.536zm64.212-136.859a4.983 4.983 0 0 1-3.535-1.465l-211.11-211.125a5 5 0 1 1 7.07-7.07l85.37 85.368 125.74 125.756a5 5 0 0 1-3.535 8.536zm64.242-136.844a4.982 4.982 0 0 1-3.535-1.464l-74.281-74.282a5 5 0 1 1 7.07-7.07l74.281 74.28a5 5 0 0 1-3.535 8.536z"/><path d="M153.173 654.822a5 5 0 0 1-3.535-8.536l59.369-59.354L309.534 486.39l69.84-69.84a5 5 0 1 1 7.071 7.07l-69.84 69.84-100.527 100.543-59.37 59.356a4.985 4.985 0 0 1-3.535 1.463zM88.945 517.979a5 5 0 0 1-3.535-8.536l208.966-208.966a5 5 0 1 1 7.07 7.071L92.48 516.515a4.983 4.983 0 0 1-3.535 1.464zM24.718 381.143a4.993 4.993 0 0 1-5-4.992v-.016a4.997 4.997 0 0 1 1.465-3.535l72.123-72.123a5 5 0 1 1 7.07 7.071l-72.01 72.011a4.982 4.982 0 0 1-3.648 1.584z"/></g><path d="M214.132 753.389a27.891 27.891 0 0 1-25.473-16.175l-70.374-149.98-40.296-85.817L29.107 397.24l-8.913-18.962a5.842 5.842 0 0 1-.096-.219L2.842 341.283a29.645 29.645 0 0 1 26.85-42.264h368.87a29.65 29.65 0 0 1 26.848 42.27l-37.968 80.921-44.636 95.052-103.211 219.95a27.871 27.871 0 0 1-25.453 16.177zM29.34 374.227l23.354 49.752 40.773 86.876 33.87 72.131 70.374 149.979a17.753 17.753 0 0 0 16.42 10.424h.006a17.737 17.737 0 0 0 16.405-10.425L416.36 337.036a19.65 19.65 0 0 0-17.798-28.017H29.692a19.645 19.645 0 0 0-17.799 28.013l17.353 36.981c.033.07.064.142.095.214z" fill="#383a47"/></svg></g><g transform="translate(745.0 733.0) rotate(134.63288397501876 51.5 51.5) scale(0.6803979337041391 0.6798679867986799)"><svg width="151.382" height="151.5" viewBox="0 0 151.382 151.5"><path d="M133.182 82.5c-17.7 17.7-128.2 64-128.2 64s46.3-110.4 64-128.2a45.4 45.4 0 0 1 64.2 64.2z" fill="#EEBED3"/><path d="M4.982 151.5a4.691 4.691 0 0 1-3.5-1.5 5.072 5.072 0 0 1-1.1-5.5c.1-.3 11.8-28 25.4-57.6 18.5-40.1 31.9-64.4 39.7-72.2a50.346 50.346 0 0 1 71.2 71.2c-7.8 7.8-32 21.1-72.2 39.6-29.6 13.7-57.3 25.3-57.6 25.4a2.857 2.857 0 0 1-1.9.6zm96.1-141.4a39.956 39.956 0 0 0-28.5 11.8c-12.5 12.5-42.7 79.3-58.1 115.2 35.8-15.4 102.7-45.6 115.2-58.1a40.35 40.35 0 0 0-28.6-68.9z" fill="#383a48"/></svg></g><g transform="translate(957.0 89.0) rotate(11.081205390127467 -146.0 95.0) scale(-0.7799145299145299 0.7793273174733387)"><svg width="374.4" height="243.8" viewBox="0 0 374.4 243.8"><path d="M151.9 243.8c-.6 0-1.1 0-1.7-.1-8.1-.9-14.7-7.8-17.8-18.5-2.2-7.6-3.9-15.3-5.1-23-10.3-4.9-22.2-8.2-34.8-9.7-29.3-3.3-59.4 4.1-84.7 20.9-2.3 1.5-5.4.9-6.9-1.4s-.9-5.4 1.4-6.9C29.6 187 62 179 93.7 182.6c11.4 1.3 22.4 4.1 32.2 8.1-2.1-23.4.4-46.6 7.5-68.5 9.9-30.4 28.3-57.7 53.2-79s54.7-35.4 86.3-40.7c33.5-5.6 67.6-1 98.7 13.4 2.5 1.2 3.6 4.1 2.4 6.6s-4.1 3.6-6.6 2.4c-29.3-13.6-61.4-18-92.9-12.7-29.8 5-57.9 18.3-81.4 38.4s-40.8 45.9-50.2 74.5c-7.3 22.5-9.5 46.4-6.4 70.4 9.8 5.3 18.2 12 24.3 19.6 5.7 7.1 7.1 15 3.8 21.2-2.6 4.7-7.4 7.5-12.7 7.5zm-13.3-35.3c.9 4.6 2.1 9.3 3.4 13.9 1.9 6.7 5.4 10.9 9.3 11.3 1.9.2 3.6-.6 4.4-2.1 1.4-2.5.3-6.2-2.8-10.1-3.8-4.8-8.6-9.1-14.3-13z" fill="#383a48"/></svg></g><g transform="translate(895.0 4.0) rotate(141.5519062420455 -83.5 105.0) translate(-0.0 0.0) scale(-0.7129013805527333 0.7122893658589531)"><svg width="234.254" height="238.667" viewBox="0 0 234.254 238.667"><path d="M199.968 69.837c-13.03 18.713-82.967 47.216-82.967 47.216s2.07-75.554 15.1-94.267S170.847-.652 189.56 12.378s23.353 38.688 10.408 57.459z" fill="#85cebe"/><path d="M117.002 122.054a4.997 4.997 0 0 1-4.999-5.137c.216-7.886 2.501-77.607 15.995-96.987C135.066 9.779 145.651 2.971 157.804.76c12.177-2.215 24.47.453 34.613 7.515 20.891 14.546 26.125 43.436 11.667 64.401l-.013.019c-13.486 19.369-77.885 46.015-85.183 48.99a5.01 5.01 0 0 1-1.886.369zm49.153-112.051c-2.178 0-4.371.197-6.561.595-9.536 1.735-17.842 7.078-23.39 15.045-8.912 12.8-12.782 59.285-13.912 83.769 22.506-9.665 64.633-29.614 73.566-42.422 11.333-16.445 7.228-39.101-9.155-50.508-6.119-4.261-13.239-6.479-20.548-6.479zm33.813 59.834h.01z" fill="#393b49"/><path d="M104.353 208.489c12.86-18.83 14.645-94.331 14.645-94.331s-69.885 28.789-82.745 47.619-8.136 44.546 10.694 57.406 44.461 8.078 57.406-10.694z" fill="#85cebe"/><path d="M70.185 231.358a46.056 46.056 0 0 1-26.059-8.046c-21.04-14.37-26.424-43.239-12.003-64.355 13.319-19.501 77.675-46.417 84.97-49.422a5 5 0 0 1 6.903 4.742c-.186 7.879-2.204 77.544-15.515 97.033l-.013.019c-8.978 13.02-23.519 20.029-38.283 20.029zm43.551-109.539c-22.484 9.759-64.558 29.898-73.355 42.777-11.312 16.563-7.102 39.198 9.385 50.458 16.484 11.258 39.118 7.044 50.463-9.392 8.798-12.899 12.473-59.37 13.507-83.843zm-9.383 86.67h.01z" fill="#393b49"/><path d="M69.837 34.372c18.713 13.03 47.216 82.967 47.216 82.967s-75.554-2.07-94.267-15.1S-.651 63.493 12.378 44.78s38.688-23.353 57.459-10.408z" fill="#85cebe"/><path d="m117.054 122.339-.137-.002c-7.886-.216-77.607-2.501-96.987-15.995C9.779 99.275 2.971 88.689.76 76.536c-2.216-12.178.453-24.47 7.515-34.613C22.821 21.032 51.71 15.798 72.676 30.256l.019.013c19.368 13.486 46.015 77.884 48.989 85.183a5 5 0 0 1-4.63 6.887zM46.399 32.076c-11.521 0-22.867 5.436-29.917 15.561-5.53 7.942-7.619 17.569-5.884 27.109 1.735 9.536 7.078 17.842 15.045 23.39 12.806 8.917 59.287 12.784 83.769 13.913-9.664-22.506-29.614-64.633-42.422-73.567a36.18 36.18 0 0 0-20.591-6.406z" fill="#393b49"/><path d="M211.385 131.984c-18.83-12.86-94.331-14.645-94.331-14.645s28.789 69.885 47.619 82.745 44.546 8.136 57.406-10.694c12.86-18.829 8.078-44.461-10.694-57.406z" fill="#85cebe"/><g fill="#393b49"><path d="M187.973 212.328c-9.259 0-18.304-2.776-26.12-8.115-19.501-13.319-46.417-77.675-49.422-84.97a5.001 5.001 0 0 1 4.741-6.903c7.879.186 77.544 2.204 97.033 15.515l.019.013c20.965 14.458 26.341 43.322 11.984 64.343-6.97 10.206-17.511 17.07-29.682 19.327-2.851.528-5.713.79-8.553.79zM124.715 122.6c9.759 22.484 29.898 64.559 42.778 73.355 8.017 5.475 17.679 7.518 27.21 5.75 9.533-1.768 17.79-7.143 23.248-15.135 11.258-16.484 7.045-39.118-9.391-50.462-12.906-8.802-59.375-12.474-83.845-13.508z"/><path d="M84.655 294.824a5 5 0 0 1-3.169-8.87c12.452-10.186 42.078-38.728 48.217-83.639 2.568-18.786.793-37.742-5.275-56.343a5 5 0 1 1 9.507-3.101c6.54 20.048 8.45 40.504 5.676 60.798-6.62 48.428-38.426 79.09-51.793 90.025a4.98 4.98 0 0 1-3.163 1.13z"/></g></svg></g></svg>