<svg xmlns="http://www.w3.org/2000/svg" viewBox="0 0 1200 1100" width="1200" height="1100"><g transform="translate(970.0 42.0) rotate(-180.0 -369.0 501.5) scale(-2.155373831775701 2.1486718080548415)"><svg width="342.4" height="466.8" viewBox="0 0 342.4 466.8"><g fill="#383A47"><path d="M337.4 461.8H115.3C54.4 461.8 5 412.4 5 351.5V5s-7 159 161.1 196c86 18.9 30.1 209.6 171.3 260.8z"/><path d="M337.4 466.8H115.3C51.7 466.8 0 415.1 0 351.5V11.6c-.1-4 0-6.4 0-6.8C.1 2.1 2.4 0 5.1 0 7.8.1 10 2.3 10 5v5.3c.3 12 2.5 43.4 17.3 77.2 10.9 25 26.5 46.4 46.2 63.7 24.7 21.6 56.3 36.7 93.7 44.9 18.8 4.1 32.9 16.3 43.3 37.1 9.1 18.2 14.7 41.3 20.7 65.8 14.9 61.2 31.8 130.5 107.9 158.1 2.3.8 3.6 3.2 3.2 5.6s-2.5 4.1-4.9 4.1zM10 69.8v281.7c0 58.1 47.2 105.3 105.3 105.3h198.6c-25.5-13.8-45.4-33.9-60.4-61.1-16.4-29.8-24.8-64.1-32.1-94.3-11.5-47.1-21.4-87.8-56.4-95.5-39.2-8.6-72.3-24.6-98.3-47.4-20.9-18.3-37.3-41-48.8-67.4-3.1-7.3-5.7-14.4-7.9-21.3z"/></g></svg></g><g transform="translate(347.0 52.0) rotate(0.0 402.0 479.0) scale(2.2647887323943663 2.259433962264151)"><svg width="355" height="424" viewBox="0 0 355 424"><g fill="#383a48"><circle cx="350" cy="143" r="5"/><circle cx="350" cy="212" r="5"/><circle cx="350" cy="281" r="5"/><circle cx="350" cy="350" r="5"/><circle cx="281" cy="74" r="5"/><circle cx="281" cy="143" r="5"/><circle cx="281" cy="212" r="5"/><circle cx="281" cy="281" r="5"/><circle cx="281" cy="350" r="5"/><circle cx="212" cy="5" r="5"/><circle cx="212" cy="74" r="5"/><circle cx="212" cy="143" r="5"/><circle cx="212" cy="212" r="5"/><circle cx="212" cy="281" r="5"/><circle cx="212" cy="350" r="5"/><circle cx="212" cy="419" r="5"/><circle cx="143" cy="5" r="5"/><circle cx="143" cy="74" r="5"/><circle cx="143" cy="143" r="5"/><circle cx="143" cy="212" r="5"/><circle cx="143" cy="281" r="5"/><circle cx="143" cy="350" r="5"/><circle cx="143" cy="419" r="5"/><circle cx="74" cy="74" r="5"/><circle cx="74" cy="143" r="5"/><circle cx="74" cy="212" r="5"/><circle cx="74" cy="281" r="5"/><circle cx="74" cy="350" r="5"/><circle cx="5" cy="143" r="5"/><circle cx="5" cy="212" r="5"/><circle cx="5" cy="281" r="5"/></g></svg></g><g transform="translate(1075.0 153.0) rotate(8.99196836957201 -283.5 152.0) scale(-0.7813008336438557 0.805389155562187)"><svg width="725.713" height="377.457" viewBox="0 0 725.713 377.457"><path d="M174.851 303.507H152.88l-38.898 46.747a61.632 61.632 0 0 1-88.966 6.047v-.012a61.62 61.62 0 0 1-6.974-83.363l62.963-80.649a40.845 40.845 0 0 0 3.27 6.073l56.599 86.748a40.569 40.569 0 0 0 33.978 18.41zm532.81-30.581a61.606 61.606 0 0 1-6.96 83.363v.012a61.632 61.632 0 0 1-88.967-6.047l-38.898-46.747h-21.972a40.569 40.569 0 0 0 33.978-18.41l56.598-86.747a40.844 40.844 0 0 0 3.271-6.073z" fill="#f6e258"/><path d="M630.169 142.564a40.518 40.518 0 0 1 11.271 55.786l-56.598 86.748a40.569 40.569 0 0 1-33.978 18.41H431.557l.025-.128a38.042 38.042 0 0 0 34.461-31.544l36.274-213.547a32.77 32.77 0 0 0 .279-1.902zM294.158 303.47v.037H174.851a40.569 40.569 0 0 1-33.978-18.41L84.275 198.35a40.518 40.518 0 0 1 11.271-55.786L221.776 57.3c.037.33.1.659.151.989l36.274 213.547a38.042 38.042 0 0 0 35.957 31.633z" fill="#f6e258"/><path d="M457.32 5a45.64 45.64 0 0 1 45.276 51.387 32.729 32.729 0 0 1-.28 1.902l-36.273 213.547a38.042 38.042 0 0 1-34.46 31.544 34.473 34.473 0 0 1-3.044.127H295.705c-.52 0-1.04-.012-1.547-.038a38.042 38.042 0 0 1-35.957-31.633L221.927 58.289c-.05-.33-.114-.66-.152-.99A45.628 45.628 0 0 1 266.925 5z" fill="#f6e258"/><g fill="#383a47"><path d="M428.54 308.507H295.705c-.604 0-1.208-.014-1.797-.044a43.22 43.22 0 0 1-40.637-35.79l-36.329-213.89a19.677 19.677 0 0 1-.123-.819A50.628 50.628 0 0 1 266.924 0H457.32a50.64 50.64 0 0 1 50.237 57.003 37.77 37.77 0 0 1-.319 2.173l-36.266 213.497a42.99 42.99 0 0 1-38.993 35.692 38.866 38.866 0 0 1-3.44.142zM266.924 10a40.63 40.63 0 0 0-40.204 46.565c.01.054.016.107.022.161.016.137.04.273.063.41l.064.391 36.262 213.471a33.184 33.184 0 0 0 31.229 27.475c.473.024.91.034 1.345.034H428.54c.935 0 1.786-.035 2.601-.107a33.012 33.012 0 0 0 29.973-27.403l36.273-213.546a28.936 28.936 0 0 0 .25-1.7A40.64 40.64 0 0 0 457.32 10z"/><path d="M174.851 308.507a45.423 45.423 0 0 1-38.166-20.677l-56.597-86.748a45.512 45.512 0 0 1 12.66-62.661l126.228-85.265a5 5 0 0 1 5.598 8.287L98.345 146.707a35.579 35.579 0 0 0-12.754 43.583 36.005 36.005 0 0 0 2.873 5.33l56.596 86.746a35.457 35.457 0 0 0 29.791 16.141 5 5 0 0 1 0 10zm119.307 0h-97.233a5 5 0 0 1 0-10h96.795c.145-.012.29-.019.438-.019a4.984 4.984 0 0 1 5 4.981v.038a5 5 0 0 1-5 5z"/><path d="M66.477 377.461a65.953 65.953 0 0 1-44.838-17.47 5.12 5.12 0 0 1-.227-.223 66.619 66.619 0 0 1-7.313-89.917l62.963-80.65a5 5 0 1 1 7.883 6.152l-62.962 80.65A56.904 56.904 0 0 0 28.39 352.6c.074.066.144.135.212.205a56.632 56.632 0 0 0 81.536-5.75l38.899-46.746a5 5 0 0 1 3.844-1.802h44.045a5 5 0 1 1 0 10h-41.702l-37.398 44.945a66.028 66.028 0 0 1-46.692 23.85q-2.337.16-4.656.16zm484.387-68.954a5 5 0 0 1 0-10 35.457 35.457 0 0 0 29.791-16.141l56.598-86.748a36 36 0 0 0 2.87-5.328 35.578 35.578 0 0 0-12.753-43.583L499.797 60.53a5 5 0 1 1 5.597-8.286l127.573 86.177a45.585 45.585 0 0 1 16.333 55.843 46.084 46.084 0 0 1-3.67 6.815l-56.6 86.75a45.423 45.423 0 0 1-38.166 20.678zm-22.074 0h-97.233a5 5 0 0 1-4.903-5.98l.025-.127a4.997 4.997 0 0 1 5.884-3.923l.14.03h96.087a5 5 0 0 1 0 10z"/><path d="M659.237 377.461q-2.319 0-4.655-.158a66.028 66.028 0 0 1-46.692-23.851l-37.398-44.945H528.79a5 5 0 0 1 0-10h44.046a5 5 0 0 1 3.843 1.802l38.899 46.746a56.631 56.631 0 0 0 81.537 5.749c.067-.07.138-.138.21-.204a56.888 56.888 0 0 0 6.394-76.597l-62.949-80.65a5 5 0 0 1 7.883-6.153l62.95 80.65a66.604 66.604 0 0 1-7.303 89.92q-.108.114-.225.22a65.96 65.96 0 0 1-44.838 17.471zM221.927 58.289s37.926 220.063 38.477 221.365 19.858 24.136 19.858 24.136l-28.777-.74-60.026-224.128zM81.004 192.277l71.875 111.23-6.918 6.518-84.586-92.605zM502.552 58.289s-37.925 220.063-38.477 221.365-19.857 24.136-19.857 24.136l28.776-.74L533.02 78.923z"/><path d="M643.475 192.277 571.6 303.507l6.919 6.518 84.586-92.605z"/></g></svg></g><g transform="translate(990.0 885.0) rotate(15.640031748689257 62.5 54.5) scale(0.4971226540781954 0.4882965617650353)"><svg width="251.447" height="223.225" viewBox="0 0 251.447 223.225"><g data-name="Layer 2"><g data-name="heart_shape_2 copy 5"><path d="M248.014 42.5C238.983 16.174 211.646-1.266 181.538.072c-20.228.9-43.944 11.2-55.815 36.6-11.87-25.4-35.587-35.7-55.814-36.6C39.8-1.269 12.463 16.175 3.432 42.5c-5.244 15.285-7.074 40.937 13.989 76.338C37.064 151.851 72.53 186.663 122.833 222.3a5 5 0 0 0 5.781 0c50.3-35.641 85.769-70.453 105.412-103.469 21.063-35.397 19.233-61.049 13.988-76.331Z" fill="#4053FA"/></g></g></svg></g><g transform="translate(610.0 489.0) rotate(73.02796367099899 258.0 168.0) scale(1.3782051282051282 1.3781788351107465)"><svg width="374.4" height="243.8" viewBox="0 0 374.4 243.8"><path d="M151.9 243.8c-.6 0-1.1 0-1.7-.1-8.1-.9-14.7-7.8-17.8-18.5-2.2-7.6-3.9-15.3-5.1-23-10.3-4.9-22.2-8.2-34.8-9.7-29.3-3.3-59.4 4.1-84.7 20.9-2.3 1.5-5.4.9-6.9-1.4s-.9-5.4 1.4-6.9C29.6 187 62 179 93.7 182.6c11.4 1.3 22.4 4.1 32.2 8.1-2.1-23.4.4-46.6 7.5-68.5 9.9-30.4 28.3-57.7 53.2-79s54.7-35.4 86.3-40.7c33.5-5.6 67.6-1 98.7 13.4 2.5 1.2 3.6 4.1 2.4 6.6s-4.1 3.6-6.6 2.4c-29.3-13.6-61.4-18-92.9-12.7-29.8 5-57.9 18.3-81.4 38.4s-40.8 45.9-50.2 74.5c-7.3 22.5-9.5 46.4-6.4 70.4 9.8 5.3 18.2 12 24.3 19.6 5.7 7.1 7.1 15 3.8 21.2-2.6 4.7-7.4 7.5-12.7 7.5zm-13.3-35.3c.9 4.6 2.1 9.3 3.4 13.9 1.9 6.7 5.4 10.9 9.3 11.3 1.9.2 3.6-.6 4.4-2.1 1.4-2.5.3-6.2-2.8-10.1-3.8-4.8-8.6-9.1-14.3-13z" fill="#383a48"/></svg></g><g transform="translate(794.0 724.0) rotate(0.0 -217.5 163.0) scale(-0.7508926560108956 0.7504633766045299)"><svg width="579.311" height="434.398" viewBox="0 0 579.311 434.398"><path d="M476.763 416.48a56.915 56.915 0 0 1-1.469 12.918h-111.58a57.262 57.262 0 1 1 113.049-12.917zm97.547-196.088V332a57.259 57.259 0 1 1 0-111.608zm-418.61-40.33a19.002 19.002 0 1 1-19.009 18.996 19.008 19.008 0 0 1 19.01-18.996z" fill="#383a47"/><circle cx="233.913" cy="314.826" fill="#383a47" r="42.832"/><path d="M453.457 123.008a78.382 78.382 0 1 1-146.322 0z" fill="#383a47"/><path d="M574.31 332v97.398h-99.016a57.259 57.259 0 1 0-111.58 0H5v-87.717c1.006.055 1.999.082 3.005.082a60.91 60.91 0 1 0 0-121.82c-1.006 0-1.999.028-3.005.082v-97.017h302.135a78.382 78.382 0 1 0 146.322 0H574.31v97.384a57.259 57.259 0 1 0 0 111.608zm-297.565-17.174a42.832 42.832 0 1 0-42.832 42.832 42.827 42.827 0 0 0 42.832-42.832zM174.709 199.058a19.01 19.01 0 1 0-19.009 19.01 19.008 19.008 0 0 0 19.01-19.01zm399.601-76.05H5L351.911 6.94s159.62-26.46 222.4 116.068z" fill="#F3F6E7"/><path d="M574.31 225.392a5 5 0 0 1-5-5v-92.384H453.457a5 5 0 1 1 0-10H574.31a5 5 0 0 1 5 5v97.384a5 5 0 0 1-5 5zM363.713 434.398H5a5 5 0 0 1-5-5v-87.717a5 5 0 0 1 5.269-4.992c.929.05 1.823.074 2.736.074a55.91 55.91 0 1 0 0-111.82 50.6 50.6 0 0 0-2.736.075A5 5 0 0 1 0 220.025v-97.017a5 5 0 0 1 5-5h302.134a5 5 0 0 1 0 10H10v86.965a65.91 65.91 0 0 1 0 131.76v77.665h353.713a5 5 0 0 1 0 10zm210.597 0h-99.016a5 5 0 0 1 0-10h94.016V332a5 5 0 0 1 10 0v97.398a5 5 0 0 1-5 5z" fill="#383a47"/><path d="M5 128.009a5.001 5.001 0 0 1-1.586-9.743L350.324 2.198a5.006 5.006 0 0 1 .77-.19c1.668-.277 41.446-6.65 89.615 4.65 28.39 6.659 53.737 18.12 75.335 34.062 27.024 19.947 48.166 46.954 62.842 80.272a5 5 0 0 1-9.152 4.031C544.414 67.54 500.35 31.02 438.765 16.473c-43.894-10.366-81.568-5.265-85.672-4.656L6.587 127.749a5 5 0 0 1-1.588.26z" fill="#383a47"/><path d="M380.302 234.543a83.404 83.404 0 0 1-77.833-113.335 5 5 0 0 1 4.665-3.2h146.323a5 5 0 0 1 4.665 3.2 83.402 83.402 0 0 1-77.82 113.335zM310.65 128.008a73.383 73.383 0 1 0 139.29 0zM155.7 223.067a24.002 24.002 0 1 1 24.01-24.01 24.037 24.037 0 0 1-24.01 24.01zm0-38.005a14.002 14.002 0 1 0 14.01 13.996 14.019 14.019 0 0 0-14.01-13.996zm78.213 177.596a47.832 47.832 0 1 1 47.832-47.832 47.886 47.886 0 0 1-47.832 47.832zm0-85.664a37.832 37.832 0 1 0 37.832 37.832 37.875 37.875 0 0 0-37.832-37.832zm327.535 61.461a62.259 62.259 0 1 1 13.984-122.935 5 5 0 0 1 3.878 4.872V332a5 5 0 0 1-3.878 4.872 62.39 62.39 0 0 1-13.984 1.583zm0-114.518a52.259 52.259 0 1 0 7.862 103.928V224.527a52.684 52.684 0 0 0-7.862-.59zm-86.154 210.461h-111.58a5 5 0 0 1-4.87-3.867 62.258 62.258 0 1 1 121.32 0 5 5 0 0 1-4.87 3.867zm-107.453-10h103.325a52.258 52.258 0 1 0-103.325 0z" fill="#383a47"/><g fill="#383a48"><ellipse cx="498.626" cy="145.713" rx="5.301" ry="5.318"/><ellipse cx="524.814" cy="145.713" rx="5.301" ry="5.318"/><ellipse cx="551.002" cy="145.713" rx="5.301" ry="5.318"/><ellipse cx="498.626" cy="171.986" rx="5.301" ry="5.318"/><ellipse cx="524.814" cy="171.986" rx="5.301" ry="5.318"/><ellipse cx="551.002" cy="171.986" rx="5.301" ry="5.318"/><ellipse cx="498.626" cy="198.259" rx="5.301" ry="5.318"/><ellipse cx="524.814" cy="198.259" rx="5.301" ry="5.318"/><ellipse cx="551.002" cy="198.259" rx="5.301" ry="5.318"/><ellipse cx="498.626" cy="224.533" rx="5.301" ry="5.318"/><ellipse cx="524.814" cy="224.533" rx="5.301" ry="5.318"/><ellipse cx="551.002" cy="224.533" rx="5.301" ry="5.318"/><ellipse cx="498.626" cy="250.806" rx="5.301" ry="5.318"/><ellipse cx="524.814" cy="250.806" rx="5.301" ry="5.318"/><ellipse cx="551.002" cy="250.806" rx="5.301" ry="5.318"/><ellipse cx="498.626" cy="277.079" rx="5.301" ry="5.318"/><ellipse cx="524.814" cy="277.079" rx="5.301" ry="5.318"/><ellipse cx="551.002" cy="277.079" rx="5.301" ry="5.318"/><ellipse cx="498.626" cy="303.353" rx="5.301" ry="5.318"/><ellipse cx="524.814" cy="303.353" rx="5.301" ry="5.318"/><ellipse cx="551.002" cy="303.353" rx="5.301" ry="5.318"/><ellipse cx="498.626" cy="329.626" rx="5.301" ry="5.318"/><ellipse cx="472.438" cy="329.626" rx="5.301" ry="5.318"/><ellipse cx="446.25" cy="329.626" rx="5.301" ry="5.318"/><ellipse cx="420.062" cy="329.626" rx="5.301" ry="5.318"/><ellipse cx="472.438" cy="303.353" rx="5.301" ry="5.318"/><ellipse cx="472.438" cy="277.813" rx="5.301" ry="5.318"/><ellipse cx="524.814" cy="329.626" rx="5.301" ry="5.318"/><ellipse cx="551.002" cy="329.626" rx="5.301" ry="5.318"/><ellipse cx="27.24" cy="355.899" rx="5.301" ry="5.318"/><ellipse cx="53.428" cy="355.899" rx="5.301" ry="5.318"/><ellipse cx="79.616" cy="355.899" rx="5.301" ry="5.318"/><ellipse cx="105.805" cy="355.899" rx="5.301" ry="5.318"/><ellipse cx="131.993" cy="355.899" rx="5.301" ry="5.318"/><ellipse cx="158.181" cy="355.899" rx="5.301" ry="5.318"/><ellipse cx="184.369" cy="355.899" rx="5.301" ry="5.318"/><ellipse cx="210.557" cy="355.899" rx="5.301" ry="5.318"/><ellipse cx="236.745" cy="355.899" rx="5.301" ry="5.318"/><ellipse cx="262.933" cy="355.899" rx="5.301" ry="5.318"/><ellipse cx="289.121" cy="355.899" rx="5.301" ry="5.318"/><ellipse cx="315.309" cy="355.899" rx="5.301" ry="5.318"/><ellipse cx="341.497" cy="355.899" rx="5.301" ry="5.318"/><ellipse cx="367.685" cy="355.899" rx="5.301" ry="5.318"/><ellipse cx="393.874" cy="355.899" rx="5.301" ry="5.318"/><ellipse cx="420.062" cy="355.899" rx="5.301" ry="5.318"/><ellipse cx="446.25" cy="355.899" rx="5.301" ry="5.318"/><ellipse cx="472.438" cy="355.899" rx="5.301" ry="5.318"/><ellipse cx="498.626" cy="355.899" rx="5.301" ry="5.318"/><ellipse cx="524.814" cy="355.899" rx="5.301" ry="5.318"/><ellipse cx="551.002" cy="355.899" rx="5.301" ry="5.318"/><ellipse cx="27.24" cy="382.173" rx="5.301" ry="5.318"/><ellipse cx="53.428" cy="382.173" rx="5.301" ry="5.318"/><ellipse cx="79.616" cy="382.173" rx="5.301" ry="5.318"/><ellipse cx="105.805" cy="382.173" rx="5.301" ry="5.318"/><ellipse cx="131.993" cy="382.173" rx="5.301" ry="5.318"/><ellipse cx="158.181" cy="382.173" rx="5.301" ry="5.318"/><ellipse cx="184.369" cy="382.173" rx="5.301" ry="5.318"/><ellipse cx="210.557" cy="382.173" rx="5.301" ry="5.318"/><ellipse cx="236.745" cy="382.173" rx="5.301" ry="5.318"/><ellipse cx="262.933" cy="382.173" rx="5.301" ry="5.318"/><ellipse cx="289.121" cy="382.173" rx="5.301" ry="5.318"/><ellipse cx="315.309" cy="382.173" rx="5.301" ry="5.318"/><ellipse cx="341.497" cy="382.173" rx="5.301" ry="5.318"/><ellipse cx="367.685" cy="382.173" rx="5.301" ry="5.318"/><ellipse cx="393.874" cy="382.173" rx="5.301" ry="5.318"/><ellipse cx="420.062" cy="382.173" rx="5.301" ry="5.318"/><ellipse cx="446.25" cy="382.173" rx="5.301" ry="5.318"/><ellipse cx="472.438" cy="382.173" rx="5.301" ry="5.318"/><ellipse cx="498.626" cy="382.173" rx="5.301" ry="5.318"/><ellipse cx="524.814" cy="382.173" rx="5.301" ry="5.318"/><ellipse cx="551.002" cy="382.173" rx="5.301" ry="5.318"/><ellipse cx="27.24" cy="408.446" rx="5.301" ry="5.318"/><ellipse cx="53.428" cy="408.446" rx="5.301" ry="5.318"/><ellipse cx="79.616" cy="408.446" rx="5.301" ry="5.318"/><ellipse cx="105.805" cy="408.446" rx="5.301" ry="5.318"/><ellipse cx="131.993" cy="408.446" rx="5.301" ry="5.318"/><ellipse cx="158.181" cy="408.446" rx="5.301" ry="5.318"/><ellipse cx="184.369" cy="408.446" rx="5.301" ry="5.318"/><ellipse cx="210.557" cy="408.446" rx="5.301" ry="5.318"/><ellipse cx="236.745" cy="408.446" rx="5.301" ry="5.318"/><ellipse cx="262.933" cy="408.446" rx="5.301" ry="5.318"/><ellipse cx="289.121" cy="408.446" rx="5.301" ry="5.318"/><ellipse cx="315.309" cy="408.446" rx="5.301" ry="5.318"/><ellipse cx="341.497" cy="408.446" rx="5.301" ry="5.318"/><ellipse cx="367.685" cy="408.446" rx="5.301" ry="5.318"/><ellipse cx="393.874" cy="408.446" rx="5.301" ry="5.318"/><ellipse cx="420.062" cy="408.446" rx="5.301" ry="5.318"/><ellipse cx="446.25" cy="408.446" rx="5.301" ry="5.318"/><ellipse cx="472.438" cy="408.446" rx="5.301" ry="5.318"/><ellipse cx="498.626" cy="408.446" rx="5.301" ry="5.318"/><ellipse cx="524.814" cy="408.446" rx="5.301" ry="5.318"/><ellipse cx="551.002" cy="408.446" rx="5.301" ry="5.318"/></g></svg></g><g transform="translate(35.0 260.0) rotate(0.0 197.0 394.5) scale(1.6075858467162816 1.6161309946886848)"><svg width="245.088" height="488.203" viewBox="0 0 245.088 488.203"><g fill="#383a48"><path d="M80.834 281.592a111.291 111.291 0 0 1 41.711 86.856 111.286 111.286 0 0 1 41.71-86.856l26.942-21.583H53.891z"/><path d="M122.545 372.448a4 4 0 0 1-4-4c0-32.743-14.656-63.263-40.212-83.735L51.39 263.131a4 4 0 0 1 2.501-7.122h137.305a4 4 0 0 1 2.501 7.122l-26.941 21.583c-25.555 20.471-40.211 50.991-40.211 83.735a4 4 0 0 1-4 3.999zm-39.21-93.978c19.368 15.516 32.91 36.401 39.21 59.709 6.299-23.309 19.841-44.194 39.209-59.709l18.052-14.461H65.282z"/><path d="M122.544 487.468a4 4 0 0 1-4-4v-115.02c0-35.185 15.749-67.981 43.21-89.979l26.942-21.583a4 4 0 1 1 5.002 6.244l-26.942 21.583c-25.556 20.471-40.212 50.991-40.212 83.734v115.02a4 4 0 0 1-4 4.001z"/><path d="M122.544 487.468a4 4 0 0 1-4-4v-115.02c0-32.743-14.656-63.264-40.211-83.734L51.39 263.131a4 4 0 0 1 5.002-6.244l26.942 21.583c27.46 21.998 43.209 54.793 43.209 89.978v115.02c.001 2.209-1.79 4-3.999 4z"/><path d="M167.064 488.203H77.715a4 4 0 0 1 0-8h89.349a4 4 0 0 1 0 8z"/></g><path d="M16.741 4h211.606L239.8 142.947H5.289z" fill="#f3f6e7"/><path d="M239.799 146.947H5.289a4 4 0 0 1-3.986-4.329L12.755 3.671A3.999 3.999 0 0 1 16.741 0h211.606a4 4 0 0 1 3.986 3.671l11.452 138.947a4.003 4.003 0 0 1-3.986 4.329zm-230.167-8h225.824L224.664 8H20.424z" fill="#383a48"/><path d="M5.289 142.947H239.8l.879 10.674c5.693 69.071-48.83 128.273-118.135 128.273h-.001c-69.305 0-123.828-59.201-118.135-128.273z" fill="#e06e9c"/><path d="M122.545 285.893c-34.148 0-67.002-14.406-90.136-39.525C9.276 221.249-2.383 187.324.423 153.291l.88-10.673a3.999 3.999 0 0 1 3.986-3.671H239.8a4 4 0 0 1 3.986 3.671l.88 10.673c2.806 34.033-8.854 67.958-31.987 93.076-23.133 25.12-55.986 39.526-90.134 39.526zM8.972 146.947l-.577 7.002c-2.622 31.811 8.275 63.521 29.898 87s52.331 36.944 84.25 36.944 62.627-13.466 84.251-36.945c21.623-23.479 32.521-55.189 29.898-87l-.577-7.002H8.972z" fill="#383a48"/></svg></g></svg>