<svg xmlns="http://www.w3.org/2000/svg" viewBox="0 0 1200 1200" width="1200" height="1200"><g transform="translate(190.0 181.0) rotate(0.0 455.5 380.5) scale(1.1727600411946448 1.1725731895223421)"><svg width="776.8" height="649" viewBox="0 0 776.8 649"><g fill="#EEBED3"><path d="M132.8 137.8H5c-2.8 0-5-2.2-5-5V5c0-2.8 2.2-5 5-5h127.8c2.8 0 5 2.2 5 5v127.8c0 2.8-2.2 5-5 5zM10 127.8h117.8V10H10z"/><path d="M260.6 137.8H132.8c-2.8 0-5-2.2-5-5V5c0-2.8 2.2-5 5-5h127.8c2.8 0 5 2.2 5 5v127.8c0 2.8-2.2 5-5 5zm-122.8-10h117.8V10H137.8z"/><path d="M388.4 137.8H260.6c-2.8 0-5-2.2-5-5V5c0-2.8 2.2-5 5-5h127.8c2.8 0 5 2.2 5 5v127.8c0 2.8-2.2 5-5 5zm-122.8-10h117.8V10H265.6z"/><path d="M516.2 137.8H388.4c-2.8 0-5-2.2-5-5V5c0-2.8 2.2-5 5-5h127.8c2.8 0 5 2.2 5 5v127.8c0 2.8-2.2 5-5 5zm-122.8-10h117.8V10H393.4z"/><path d="M644 137.8H516.2c-2.8 0-5-2.2-5-5V5c0-2.8 2.2-5 5-5H644c2.8 0 5 2.2 5 5v127.8c0 2.8-2.2 5-5 5zm-122.8-10H639V10H521.2z"/><path d="M771.8 137.8H644c-2.8 0-5-2.2-5-5V5c0-2.8 2.2-5 5-5h127.8c2.8 0 5 2.2 5 5v127.8c0 2.8-2.2 5-5 5zm-122.8-10h117.8V10H649zM132.8 265.6H5c-2.8 0-5-2.2-5-5V132.8c0-2.8 2.2-5 5-5h127.8c2.8 0 5 2.2 5 5v127.8c0 2.8-2.2 5-5 5zM10 255.6h117.8V137.8H10z"/><path d="M260.6 265.6H132.8c-2.8 0-5-2.2-5-5V132.8c0-2.8 2.2-5 5-5h127.8c2.8 0 5 2.2 5 5v127.8c0 2.8-2.2 5-5 5zm-122.8-10h117.8V137.8H137.8z"/><path d="M388.4 265.6H260.6c-2.8 0-5-2.2-5-5V132.8c0-2.8 2.2-5 5-5h127.8c2.8 0 5 2.2 5 5v127.8c0 2.8-2.2 5-5 5zm-122.8-10h117.8V137.8H265.6z"/><path d="M516.2 265.6H388.4c-2.8 0-5-2.2-5-5V132.8c0-2.8 2.2-5 5-5h127.8c2.8 0 5 2.2 5 5v127.8c0 2.8-2.2 5-5 5zm-122.8-10h117.8V137.8H393.4z"/><path d="M644 265.6H516.2c-2.8 0-5-2.2-5-5V132.8c0-2.8 2.2-5 5-5H644c2.8 0 5 2.2 5 5v127.8c0 2.8-2.2 5-5 5zm-122.8-10H639V137.8H521.2z"/><path d="M771.8 265.6H644c-2.8 0-5-2.2-5-5V132.8c0-2.8 2.2-5 5-5h127.8c2.8 0 5 2.2 5 5v127.8c0 2.8-2.2 5-5 5zm-122.8-10h117.8V137.8H649zM132.8 393.4H5c-2.8 0-5-2.2-5-5V260.6c0-2.8 2.2-5 5-5h127.8c2.8 0 5 2.2 5 5v127.8c0 2.8-2.2 5-5 5zM10 383.4h117.8V265.6H10z"/><path d="M260.6 393.4H132.8c-2.8 0-5-2.2-5-5V260.6c0-2.8 2.2-5 5-5h127.8c2.8 0 5 2.2 5 5v127.8c0 2.8-2.2 5-5 5zm-122.8-10h117.8V265.6H137.8z"/><path d="M388.4 393.4H260.6c-2.8 0-5-2.2-5-5V260.6c0-2.8 2.2-5 5-5h127.8c2.8 0 5 2.2 5 5v127.8c0 2.8-2.2 5-5 5zm-122.8-10h117.8V265.6H265.6z"/><path d="M516.2 393.4H388.4c-2.8 0-5-2.2-5-5V260.6c0-2.8 2.2-5 5-5h127.8c2.8 0 5 2.2 5 5v127.8c0 2.8-2.2 5-5 5zm-122.8-10h117.8V265.6H393.4z"/><path d="M644 393.4H516.2c-2.8 0-5-2.2-5-5V260.6c0-2.8 2.2-5 5-5H644c2.8 0 5 2.2 5 5v127.8c0 2.8-2.2 5-5 5zm-122.8-10H639V265.6H521.2z"/><path d="M771.8 393.4H644c-2.8 0-5-2.2-5-5V260.6c0-2.8 2.2-5 5-5h127.8c2.8 0 5 2.2 5 5v127.8c0 2.8-2.2 5-5 5zm-122.8-10h117.8V265.6H649zM132.8 521.2H5c-2.8 0-5-2.2-5-5V388.4c0-2.8 2.2-5 5-5h127.8c2.8 0 5 2.2 5 5v127.8c0 2.8-2.2 5-5 5zM10 511.2h117.8V393.4H10z"/><path d="M260.6 521.2H132.8c-2.8 0-5-2.2-5-5V388.4c0-2.8 2.2-5 5-5h127.8c2.8 0 5 2.2 5 5v127.8c0 2.8-2.2 5-5 5zm-122.8-10h117.8V393.4H137.8z"/><path d="M388.4 521.2H260.6c-2.8 0-5-2.2-5-5V388.4c0-2.8 2.2-5 5-5h127.8c2.8 0 5 2.2 5 5v127.8c0 2.8-2.2 5-5 5zm-122.8-10h117.8V393.4H265.6z"/><path d="M516.2 521.2H388.4c-2.8 0-5-2.2-5-5V388.4c0-2.8 2.2-5 5-5h127.8c2.8 0 5 2.2 5 5v127.8c0 2.8-2.2 5-5 5zm-122.8-10h117.8V393.4H393.4z"/><path d="M644 521.2H516.2c-2.8 0-5-2.2-5-5V388.4c0-2.8 2.2-5 5-5H644c2.8 0 5 2.2 5 5v127.8c0 2.8-2.2 5-5 5zm-122.8-10H639V393.4H521.2z"/><path d="M771.8 521.2H644c-2.8 0-5-2.2-5-5V388.4c0-2.8 2.2-5 5-5h127.8c2.8 0 5 2.2 5 5v127.8c0 2.8-2.2 5-5 5zm-122.8-10h117.8V393.4H649zM132.8 649H5c-2.8 0-5-2.2-5-5V516.2c0-2.8 2.2-5 5-5h127.8c2.8 0 5 2.2 5 5V644c0 2.8-2.2 5-5 5zM10 639h117.8V521.2H10z"/><path d="M260.6 649H132.8c-2.8 0-5-2.2-5-5V516.2c0-2.8 2.2-5 5-5h127.8c2.8 0 5 2.2 5 5V644c0 2.8-2.2 5-5 5zm-122.8-10h117.8V521.2H137.8z"/><path d="M388.4 649H260.6c-2.8 0-5-2.2-5-5V516.2c0-2.8 2.2-5 5-5h127.8c2.8 0 5 2.2 5 5V644c0 2.8-2.2 5-5 5zm-122.8-10h117.8V521.2H265.6z"/><path d="M516.2 649H388.4c-2.8 0-5-2.2-5-5V516.2c0-2.8 2.2-5 5-5h127.8c2.8 0 5 2.2 5 5V644c0 2.8-2.2 5-5 5zm-122.8-10h117.8V521.2H393.4z"/><path d="M644 649H516.2c-2.8 0-5-2.2-5-5V516.2c0-2.8 2.2-5 5-5H644c2.8 0 5 2.2 5 5V644c0 2.8-2.2 5-5 5zm-122.8-10H639V521.2H521.2z"/><path d="M771.8 649H644c-2.8 0-5-2.2-5-5V516.2c0-2.8 2.2-5 5-5h127.8c2.8 0 5 2.2 5 5V644c0 2.8-2.2 5-5 5zM649 639h117.8V521.2H649z"/></g></svg></g><g transform="translate(352.0 73.0) rotate(0.0 371.5 434.5) scale(1.2485296588808603 1.2480252764612956)"><svg width="595.1" height="696.3" viewBox="0 0 595.1 696.3"><g fill="#EEBED3"><path d="M5 691.3h585.1V5C462.2 28.5 505.5 377.3 374 412.1 177.7 464.1 222.4 641 5 691.3z"/><path d="M590.1 696.3H5c-2.5 0-4.7-1.9-5-4.4s1.4-4.9 3.8-5.4c49.5-11.5 89.6-30.7 122.5-58.9 29.4-25.1 50.5-54.9 70.9-83.7 38.7-54.6 78.7-111 175.4-136.6 63-16.7 84.8-112.2 105.9-204.7 10.6-46.4 21.6-94.4 37.7-131.2C535 29 558.8 5.7 589.2.1c1.5-.3 3 .1 4.1 1.1s1.8 2.4 1.8 3.8v686.3c0 2.8-2.2 5-5 5zm-548.9-10h543.9v-675c-24.4 6.8-43.4 27.4-59.6 64.1-15.8 36-26.6 83.5-37.1 129.4-21.8 95.3-44.3 193.9-113.1 212.1-93.2 24.7-130.4 77.2-169.8 132.7-37.3 52.6-75.8 106.8-164.3 136.7z"/></g></svg></g><g transform="translate(394.0 541.0) rotate(0.0 353.5 98.5) scale(2.402310567448182 2.4381188118811883)"><svg width="294.3" height="80.8" viewBox="0 0 294.3 80.8"><g fill="#f3f6e6"><path d="m5 29.2 15.9-15.9c10.8-10.8 28.4-10.8 39.2 0l14.5 14.4c10.8 10.8 28.4 10.8 39.2 0l14.4-14.5c10.8-10.8 28.4-10.8 39.2 0l14.5 14.4c10.8 10.8 28.4 10.8 39.2 0l14.4-14.5c10.8-10.8 28.4-10.8 39.2 0l14.6 14.5v40l-14.6-14.5c-10.8-10.8-28.4-10.8-39.2 0l-14.4 14.5c-10.8 10.8-28.4 10.8-39.2 0l-14.5-14.4c-10.8-10.8-28.4-10.8-39.2 0l-14.4 14.5c-10.8 10.8-28.4 10.8-39.2 0L60.1 53.3c-10.8-10.8-28.4-10.8-39.2 0L5 69.2z"/><path d="M94.2 80.8c-8.4 0-16.8-3.2-23.1-9.6L56.6 56.8c-8.9-8.9-23.3-8.9-32.1 0l-16 15.9c-1.4 1.4-3.6 1.9-5.4 1.1C1.2 73 0 71.2 0 69.2v-40c0-1.3.5-2.6 1.5-3.5L17.4 9.8C30.1-3 50.9-3 63.6 9.8l14.5 14.4c8.9 8.9 23.3 8.9 32.1 0l14.4-14.5C130.8 3.5 139 .1 147.7.1c8.8 0 17 3.4 23.1 9.6l14.5 14.4c8.9 8.9 23.3 8.9 32.1 0L232 9.6c6.2-6.2 14.4-9.6 23.1-9.6 8.8 0 17 3.4 23.1 9.6l14.6 14.5c.9.9 1.5 2.2 1.5 3.5v40c0 2-1.2 3.8-3.1 4.6s-4 .4-5.4-1.1l-14.6-14.5c-4.3-4.3-10-6.6-16.1-6.6s-11.8 2.4-16.1 6.6l-14.4 14.5c-6.2 6.2-14.4 9.6-23.1 9.6s-17-3.4-23.1-9.6l-14.5-14.4c-8.9-8.9-23.3-8.9-32.1 0l-14.4 14.5c-6.4 6.4-14.8 9.6-23.2 9.6zM40.5 40.2c8.4 0 16.8 3.2 23.1 9.6l14.5 14.4c8.9 8.9 23.3 8.9 32.1 0l14.4-14.5c12.8-12.8 33.5-12.8 46.3 0l14.5 14.4c4.3 4.3 10 6.6 16.1 6.6s11.8-2.4 16.1-6.6L232 49.6c12.8-12.8 33.5-12.8 46.3 0l6.1 6V29.7l-13.1-13c-4.3-4.3-10-6.6-16.1-6.6s-11.8 2.4-16.1 6.6l-14.4 14.5c-12.8 12.8-33.5 12.8-46.3 0l-14.5-14.4c-4.3-4.3-10-6.6-16.1-6.6s-11.8 2.4-16.1 6.6l-14.4 14.5C104.6 44 83.8 44 71.1 31.2L56.6 16.8C47.7 8 33.3 8 24.4 16.8L10 31.3v25.9l7.4-7.4c6.3-6.4 14.7-9.6 23.1-9.6z"/></g></svg></g><g transform="translate(665.0 88.0) rotate(16.71299657653984 -279.5 153.5) scale(-0.7702771887247184 0.8133370748604981)"><svg width="725.713" height="377.457" viewBox="0 0 725.713 377.457"><path d="M174.851 303.507H152.88l-38.898 46.747a61.632 61.632 0 0 1-88.966 6.047v-.012a61.62 61.62 0 0 1-6.974-83.363l62.963-80.649a40.845 40.845 0 0 0 3.27 6.073l56.599 86.748a40.569 40.569 0 0 0 33.978 18.41zm532.81-30.581a61.606 61.606 0 0 1-6.96 83.363v.012a61.632 61.632 0 0 1-88.967-6.047l-38.898-46.747h-21.972a40.569 40.569 0 0 0 33.978-18.41l56.598-86.747a40.844 40.844 0 0 0 3.271-6.073z" fill="#f6e258"/><path d="M630.169 142.564a40.518 40.518 0 0 1 11.271 55.786l-56.598 86.748a40.569 40.569 0 0 1-33.978 18.41H431.557l.025-.128a38.042 38.042 0 0 0 34.461-31.544l36.274-213.547a32.77 32.77 0 0 0 .279-1.902zM294.158 303.47v.037H174.851a40.569 40.569 0 0 1-33.978-18.41L84.275 198.35a40.518 40.518 0 0 1 11.271-55.786L221.776 57.3c.037.33.1.659.151.989l36.274 213.547a38.042 38.042 0 0 0 35.957 31.633z" fill="#f6e258"/><path d="M457.32 5a45.64 45.64 0 0 1 45.276 51.387 32.729 32.729 0 0 1-.28 1.902l-36.273 213.547a38.042 38.042 0 0 1-34.46 31.544 34.473 34.473 0 0 1-3.044.127H295.705c-.52 0-1.04-.012-1.547-.038a38.042 38.042 0 0 1-35.957-31.633L221.927 58.289c-.05-.33-.114-.66-.152-.99A45.628 45.628 0 0 1 266.925 5z" fill="#f6e258"/><g fill="#383a47"><path d="M428.54 308.507H295.705c-.604 0-1.208-.014-1.797-.044a43.22 43.22 0 0 1-40.637-35.79l-36.329-213.89a19.677 19.677 0 0 1-.123-.819A50.628 50.628 0 0 1 266.924 0H457.32a50.64 50.64 0 0 1 50.237 57.003 37.77 37.77 0 0 1-.319 2.173l-36.266 213.497a42.99 42.99 0 0 1-38.993 35.692 38.866 38.866 0 0 1-3.44.142zM266.924 10a40.63 40.63 0 0 0-40.204 46.565c.01.054.016.107.022.161.016.137.04.273.063.41l.064.391 36.262 213.471a33.184 33.184 0 0 0 31.229 27.475c.473.024.91.034 1.345.034H428.54c.935 0 1.786-.035 2.601-.107a33.012 33.012 0 0 0 29.973-27.403l36.273-213.546a28.936 28.936 0 0 0 .25-1.7A40.64 40.64 0 0 0 457.32 10z"/><path d="M174.851 308.507a45.423 45.423 0 0 1-38.166-20.677l-56.597-86.748a45.512 45.512 0 0 1 12.66-62.661l126.228-85.265a5 5 0 0 1 5.598 8.287L98.345 146.707a35.579 35.579 0 0 0-12.754 43.583 36.005 36.005 0 0 0 2.873 5.33l56.596 86.746a35.457 35.457 0 0 0 29.791 16.141 5 5 0 0 1 0 10zm119.307 0h-97.233a5 5 0 0 1 0-10h96.795c.145-.012.29-.019.438-.019a4.984 4.984 0 0 1 5 4.981v.038a5 5 0 0 1-5 5z"/><path d="M66.477 377.461a65.953 65.953 0 0 1-44.838-17.47 5.12 5.12 0 0 1-.227-.223 66.619 66.619 0 0 1-7.313-89.917l62.963-80.65a5 5 0 1 1 7.883 6.152l-62.962 80.65A56.904 56.904 0 0 0 28.39 352.6c.074.066.144.135.212.205a56.632 56.632 0 0 0 81.536-5.75l38.899-46.746a5 5 0 0 1 3.844-1.802h44.045a5 5 0 1 1 0 10h-41.702l-37.398 44.945a66.028 66.028 0 0 1-46.692 23.85q-2.337.16-4.656.16zm484.387-68.954a5 5 0 0 1 0-10 35.457 35.457 0 0 0 29.791-16.141l56.598-86.748a36 36 0 0 0 2.87-5.328 35.578 35.578 0 0 0-12.753-43.583L499.797 60.53a5 5 0 1 1 5.597-8.286l127.573 86.177a45.585 45.585 0 0 1 16.333 55.843 46.084 46.084 0 0 1-3.67 6.815l-56.6 86.75a45.423 45.423 0 0 1-38.166 20.678zm-22.074 0h-97.233a5 5 0 0 1-4.903-5.98l.025-.127a4.997 4.997 0 0 1 5.884-3.923l.14.03h96.087a5 5 0 0 1 0 10z"/><path d="M659.237 377.461q-2.319 0-4.655-.158a66.028 66.028 0 0 1-46.692-23.851l-37.398-44.945H528.79a5 5 0 0 1 0-10h44.046a5 5 0 0 1 3.843 1.802l38.899 46.746a56.631 56.631 0 0 0 81.537 5.749c.067-.07.138-.138.21-.204a56.888 56.888 0 0 0 6.394-76.597l-62.949-80.65a5 5 0 0 1 7.883-6.153l62.95 80.65a66.604 66.604 0 0 1-7.303 89.92q-.108.114-.225.22a65.96 65.96 0 0 1-44.838 17.471zM221.927 58.289s37.926 220.063 38.477 221.365 19.858 24.136 19.858 24.136l-28.777-.74-60.026-224.128zM81.004 192.277l71.875 111.23-6.918 6.518-84.586-92.605zM502.552 58.289s-37.925 220.063-38.477 221.365-19.857 24.136-19.857 24.136l28.776-.74L533.02 78.923z"/><path d="M643.475 192.277 571.6 303.507l6.919 6.518 84.586-92.605z"/></g></svg></g><g transform="translate(924.0 409.0) rotate(-1.4737162893529194 -445.0 377.5) scale(-1.5344906956415294 1.5349116155198879)"><svg width="579.997" height="491.885" viewBox="0 0 579.997 491.885"><path d="M40.851 335.812 482.476 14.578c25.852-18.805 62.054-13.092 80.859 12.761l2.085 2.866c18.805 25.852 13.092 62.054-12.761 80.859l-442.3 321.726-35.218-17.025-8.824-57.694z" fill="#f6e258"/><g fill="#383a48"><path d="M110.358 436.289a3.49 3.49 0 0 1-1.523-.349l-35.217-17.025a3.5 3.5 0 0 1-1.937-2.622l-8.632-56.43-24.502-21.416a3.5 3.5 0 0 1 .246-5.466L480.417 11.747c27.372-19.91 65.838-13.839 85.748 13.532l2.085 2.867c9.645 13.258 13.549 29.48 10.993 45.676-2.557 16.195-11.266 30.426-24.525 40.071L112.417 435.62a3.508 3.508 0 0 1-2.059.669zm-32.035-22.875 31.671 15.311L550.6 108.232c11.747-8.545 19.463-21.153 21.728-35.501s-1.194-28.72-9.739-40.467l-2.085-2.867c-17.64-24.25-51.72-29.627-75.97-11.988L46.457 336.063l22.163 19.372a3.504 3.504 0 0 1 1.156 2.106z"/><path d="M134.733 376.601c9.783 1.85 18.728-4.657 19.981-14.534l15.237-120.161-27.144 19.744-13.611 107.338c-.449 3.541 2.03 6.949 5.537 7.613z"/><path d="M138.082 380.418c-1.321 0-2.659-.125-3.999-.379-5.285-.999-9.034-6.154-8.359-11.49l13.611-107.339a3.5 3.5 0 0 1 1.414-2.39l27.144-19.744a3.502 3.502 0 0 1 5.531 3.271l-15.237 120.161c-.729 5.744-3.643 10.735-8.204 14.054a20.108 20.108 0 0 1-11.901 3.856zm8.008-116.827-13.421 105.838c-.216 1.704 1.027 3.413 2.715 3.732 3.775.715 7.496-.09 10.48-2.261s4.895-5.465 5.377-9.274L165.46 249.5zm113.356 22.294c9.783 1.85 18.728-4.657 19.981-14.534l15.237-120.161-27.144 19.744-13.611 107.338c-.449 3.542 2.03 6.95 5.537 7.613z"/><path d="M262.795 289.704c-1.321 0-2.659-.125-3.999-.379-5.286-1-9.036-6.155-8.359-11.492l13.611-107.338a3.504 3.504 0 0 1 1.414-2.39l27.144-19.744a3.502 3.502 0 0 1 5.531 3.271L282.9 271.792c-.729 5.744-3.643 10.735-8.205 14.055-3.489 2.537-7.61 3.856-11.9 3.857zm8.007-116.828-13.421 105.838c-.217 1.704 1.026 3.414 2.715 3.733 3.768.712 7.493-.089 10.48-2.261 2.984-2.172 4.895-5.465 5.377-9.274l14.219-112.125zm113.357 22.294c9.783 1.85 18.728-4.657 19.981-14.534l15.237-120.161-27.145 19.745-13.611 107.338c-.448 3.541 2.031 6.949 5.538 7.612z"/><path d="M387.507 198.988c-1.321 0-2.659-.125-3.999-.379-5.286-1-9.036-6.154-8.358-11.491L388.759 79.78a3.5 3.5 0 0 1 1.414-2.39l27.144-19.744a3.5 3.5 0 0 1 5.531 3.271l-15.236 120.161c-.729 5.745-3.644 10.736-8.206 14.055-3.488 2.536-7.608 3.855-11.899 3.855zm8.007-116.827-13.42 105.838c-.217 1.704 1.026 3.413 2.715 3.732 3.771.714 7.494-.089 10.479-2.26s4.896-5.465 5.378-9.275l14.218-112.125z"/></g><path d="M141.06 371.999c9.783 1.85 18.728-4.657 19.981-14.534l15.237-120.161-27.144 19.744-13.611 107.338c-.449 3.541 2.03 6.95 5.537 7.613z" fill="#f6e258"/><path d="M144.409 375.816c-1.321 0-2.659-.125-3.999-.379-5.286-.999-9.036-6.154-8.359-11.491l13.61-107.338a3.504 3.504 0 0 1 1.414-2.39l27.144-19.744a3.502 3.502 0 0 1 5.531 3.271l-15.236 120.16c-.729 5.745-3.644 10.736-8.206 14.055a20.102 20.102 0 0 1-11.899 3.856zm8.007-116.827-13.42 105.838c-.217 1.704 1.026 3.413 2.715 3.732 3.771.713 7.494-.089 10.479-2.26s4.896-5.465 5.378-9.275l14.218-112.125z" fill="#383a48"/><path d="M265.772 281.284c9.783 1.85 18.728-4.657 19.981-14.534l15.237-120.161-27.144 19.744-13.611 107.338c-.449 3.541 2.03 6.949 5.537 7.613z" fill="#f6e258"/><path d="M269.121 285.101c-1.321 0-2.659-.125-3.999-.379-5.285-.999-9.034-6.154-8.359-11.491l13.611-107.339a3.5 3.5 0 0 1 1.414-2.39l27.144-19.744a3.502 3.502 0 0 1 5.531 3.271L289.225 267.19c-.729 5.744-3.643 10.735-8.204 14.054-3.488 2.538-7.61 3.857-11.9 3.857zm8.008-116.827-13.421 105.837c-.216 1.704 1.027 3.414 2.715 3.733 3.774.713 7.496-.089 10.48-2.261s4.895-5.465 5.377-9.274l14.219-112.126z" fill="#383a48"/><path d="M390.485 190.568c9.783 1.85 18.728-4.657 19.981-14.534l15.237-120.161-27.144 19.744-13.611 107.338c-.449 3.542 2.03 6.95 5.537 7.613z" fill="#f6e258"/><path d="M393.834 194.386c-1.321 0-2.659-.125-3.999-.379-5.286-1-9.036-6.154-8.359-11.491l13.611-107.338a3.5 3.5 0 0 1 1.414-2.39l27.144-19.744a3.502 3.502 0 0 1 5.531 3.271l-15.237 120.161c-.729 5.744-3.643 10.735-8.205 14.054a20.11 20.11 0 0 1-11.9 3.856zm8.007-116.827L388.42 183.397c-.217 1.704 1.026 3.413 2.715 3.732 3.771.712 7.494-.089 10.48-2.261 2.984-2.171 4.895-5.465 5.377-9.274l14.219-112.126z" fill="#383a48"/><path d="m33.467 378.398 3.252 36.281L3.5 391.25z" fill="#f6e258"/><path d="M36.719 418.179a3.501 3.501 0 0 1-2.018-.64L1.482 394.11a3.5 3.5 0 0 1 .638-6.078l29.968-12.853a3.498 3.498 0 0 1 4.866 2.904l3.252 36.282a3.503 3.503 0 0 1-3.487 3.814zm-26.086-26.181 21.925 15.463-2.146-23.945z" fill="#383a48"/><path d="m44.566 448.228-14.327 28.6 29.524-9.562z" fill="#f6e258"/><path d="M30.239 480.328a3.501 3.501 0 0 1-3.129-5.068l14.327-28.6c.534-1.067 1.576-1.789 2.764-1.913s2.356.365 3.101 1.297l15.196 19.039a3.499 3.499 0 0 1-1.657 5.513l-29.523 9.561a3.5 3.5 0 0 1-1.079.171zm15.006-25.64-8.133 16.234 16.759-5.427z" fill="#383a48"/><path d="m104.445 458.95-14.953 29.435 35.656-1.124 11.498-15.998z" fill="#f6e258"/><path d="M89.492 491.885a3.499 3.499 0 0 1-3.12-5.085l14.953-29.436a3.5 3.5 0 0 1 4.37-1.684l32.2 12.313a3.5 3.5 0 0 1 1.592 5.311l-11.497 15.998a3.504 3.504 0 0 1-2.731 1.456l-35.656 1.124c-.038.003-.075.003-.111.003zm16.646-28.541L95.29 484.701l28.023-.883 7.839-10.908z" fill="#383a48"/></svg></g><g transform="translate(766.0 66.0) rotate(0.0 182.0 364.0) scale(1.48518083300692 1.4911829710182036)"><svg width="245.088" height="488.203" viewBox="0 0 245.088 488.203"><g fill="#383a48"><path d="M80.834 281.592a111.291 111.291 0 0 1 41.711 86.856 111.286 111.286 0 0 1 41.71-86.856l26.942-21.583H53.891z"/><path d="M122.545 372.448a4 4 0 0 1-4-4c0-32.743-14.656-63.263-40.212-83.735L51.39 263.131a4 4 0 0 1 2.501-7.122h137.305a4 4 0 0 1 2.501 7.122l-26.941 21.583c-25.555 20.471-40.211 50.991-40.211 83.735a4 4 0 0 1-4 3.999zm-39.21-93.978c19.368 15.516 32.91 36.401 39.21 59.709 6.299-23.309 19.841-44.194 39.209-59.709l18.052-14.461H65.282z"/><path d="M122.544 487.468a4 4 0 0 1-4-4v-115.02c0-35.185 15.749-67.981 43.21-89.979l26.942-21.583a4 4 0 1 1 5.002 6.244l-26.942 21.583c-25.556 20.471-40.212 50.991-40.212 83.734v115.02a4 4 0 0 1-4 4.001z"/><path d="M122.544 487.468a4 4 0 0 1-4-4v-115.02c0-32.743-14.656-63.264-40.211-83.734L51.39 263.131a4 4 0 0 1 5.002-6.244l26.942 21.583c27.46 21.998 43.209 54.793 43.209 89.978v115.02c.001 2.209-1.79 4-3.999 4z"/><path d="M167.064 488.203H77.715a4 4 0 0 1 0-8h89.349a4 4 0 0 1 0 8z"/></g><path d="M16.741 4h211.606L239.8 142.947H5.289z" fill="#f3f6e7"/><path d="M239.799 146.947H5.289a4 4 0 0 1-3.986-4.329L12.755 3.671A3.999 3.999 0 0 1 16.741 0h211.606a4 4 0 0 1 3.986 3.671l11.452 138.947a4.003 4.003 0 0 1-3.986 4.329zm-230.167-8h225.824L224.664 8H20.424z" fill="#383a48"/><path d="M5.289 142.947H239.8l.879 10.674c5.693 69.071-48.83 128.273-118.135 128.273h-.001c-69.305 0-123.828-59.201-118.135-128.273z" fill="#e06e9c"/><path d="M122.545 285.893c-34.148 0-67.002-14.406-90.136-39.525C9.276 221.249-2.383 187.324.423 153.291l.88-10.673a3.999 3.999 0 0 1 3.986-3.671H239.8a4 4 0 0 1 3.986 3.671l.88 10.673c2.806 34.033-8.854 67.958-31.987 93.076-23.133 25.12-55.986 39.526-90.134 39.526zM8.972 146.947l-.577 7.002c-2.622 31.811 8.275 63.521 29.898 87s52.331 36.944 84.25 36.944 62.627-13.466 84.251-36.945c21.623-23.479 32.521-55.189 29.898-87l-.577-7.002H8.972z" fill="#383a48"/></svg></g></svg>