<svg xmlns="http://www.w3.org/2000/svg" viewBox="0 0 1000 1000" width="1000" height="1000"><g transform="translate(52.0 97.0) rotate(0.0 433.5 433.5) scale(2.41302532702477 2.4136971046770603)"><svg width="359.3" height="359.2" viewBox="0 0 359.3 359.2"><path d="M198.7 6c-.5 146-108.9 174.1-155.5 282.5C19.3 258.6 5 220.8 5 179.6 5 83.2 83.2 5 179.6 5c6.5 0 12.9.3 19.1 1z" fill="#f6e049"/><path d="M43.2 293.5c-1.5 0-2.9-.7-3.9-1.9C13.6 259.5 0 220.7 0 179.6 0 80.6 80.6 0 179.6 0c7 0 13.6.3 19.7 1 2.5.3 4.4 2.4 4.4 5-.1 41.2-8.9 76.9-26.7 109.4-15.9 28.9-37.5 52.6-58.4 75.6-26.1 28.8-53.2 58.5-70.8 99.5-.7 1.6-2.2 2.7-3.9 3h-.7zM179.6 10C86.1 10 10 86.1 10 179.6c0 36.1 11.1 70.2 32.1 99.2 18.2-38.5 44-67 69.1-94.5 41.5-45.7 80.8-88.9 82.5-173.7-4.5-.4-9.2-.6-14.1-.6z" fill="#f6e049"/><g fill="#e0719e"><path d="M354.3 179.6c0 96.4-78.2 174.6-174.6 174.6-55.2 0-104.5-25.6-136.5-65.7C89.8 180.1 198.2 152 198.7 6c87.5 9.5 155.6 83.6 155.6 173.6z"/><path d="M179.7 359.2c-55 0-106.1-24.6-140.4-67.6-1.2-1.4-1.4-3.4-.7-5.1 18.3-42.5 45.9-72.9 72.6-102.3 42.3-46.5 82.2-90.5 82.5-178.3 0-1.4.6-2.8 1.7-3.7s2.5-1.4 3.9-1.2C243 5.8 283.4 26.5 313 59.3c29.8 33 46.3 75.8 46.3 120.3 0 99-80.6 179.6-179.6 179.6zM49 287.7c32.3 39.1 79.8 61.5 130.7 61.5 93.5 0 169.6-76.1 169.6-169.6 0-42.1-15.5-82.4-43.7-113.6-26.7-29.6-62.8-48.8-102-54.3-.9 38.8-9.6 72.8-26.7 103.7-15.9 28.9-37.5 52.6-58.4 75.6C93 219.1 66.6 248.1 49 287.7z"/></g></svg></g><g transform="translate(796.0 307.0) rotate(120.21377269339797 -323.5 323.5) scale(-0.9597341818154849 0.9597897066633437)"><svg width="674.145" height="674.106" viewBox="0 0 674.145 674.106"><path d="M60.133 674.106c-19.1 0-34.1-5.1-44.6-15.6-27.2-27.2-18.5-86.4 24.7-166.6 42.2-78.5 112.4-168.7 197.7-254s175.5-155.5 254-197.7c80.2-43.1 139.4-51.9 166.6-24.7 32.7 32.7 13.5 110.6-52.6 214l-8.4-5.4c62.4-97.6 82.6-172.9 54-201.5-23.5-23.5-79.9-13.9-154.8 26.4-77.7 41.8-167.1 111.4-251.7 196s-154.2 174-196 251.7c-40.3 74.9-49.9 131.3-26.4 154.8 28.6 28.6 103.9 8.4 201.5-54l5.4 8.4c-70.3 44.9-128.9 68.2-169.4 68.2z" fill="#383a48"/></svg></g><g transform="translate(236.0 325.0) rotate(-72.98670445129243 134.0 41.5) scale(0.6234007908816004 0.6217228464419475)"><svg width="429.9" height="133.5" viewBox="0 0 429.9 133.5"><g fill="#383a48"><circle cx="424.9" cy="54.4" r="5"/><circle cx="424.9" cy="79.1" r="5"/><circle cx="400.2" cy="29.7" r="5"/><circle cx="400.2" cy="54.4" r="5"/><circle cx="400.2" cy="79.1" r="5"/><circle cx="400.2" cy="103.8" r="5"/><circle cx="375.5" cy="5" r="5"/><circle cx="375.5" cy="29.7" r="5"/><circle cx="375.5" cy="54.4" r="5"/><circle cx="375.5" cy="79.1" r="5"/><circle cx="375.5" cy="103.8" r="5"/><circle cx="375.5" cy="128.5" r="5"/><circle cx="350.8" cy="5" r="5"/><circle cx="350.8" cy="29.7" r="5"/><circle cx="350.8" cy="54.4" r="5"/><circle cx="350.8" cy="79.1" r="5"/><circle cx="350.8" cy="103.8" r="5"/><circle cx="350.8" cy="128.5" r="5"/><circle cx="326.1" cy="5" r="5"/><circle cx="326.1" cy="29.7" r="5"/><circle cx="326.1" cy="54.4" r="5"/><circle cx="326.1" cy="79.1" r="5"/><circle cx="326.1" cy="103.8" r="5"/><circle cx="326.1" cy="128.5" r="5"/><circle cx="301.4" cy="5" r="5"/><circle cx="301.4" cy="29.7" r="5"/><circle cx="301.4" cy="54.4" r="5"/><circle cx="301.4" cy="79.1" r="5"/><circle cx="301.4" cy="103.8" r="5"/><circle cx="301.4" cy="128.5" r="5"/><circle cx="276.7" cy="5" r="5"/><circle cx="276.7" cy="29.7" r="5"/><circle cx="276.7" cy="54.4" r="5"/><circle cx="276.7" cy="79.1" r="5"/><circle cx="276.7" cy="103.8" r="5"/><circle cx="276.7" cy="128.5" r="5"/><circle cx="252" cy="5" r="5"/><circle cx="252" cy="29.7" r="5"/><circle cx="252" cy="54.4" r="5"/><circle cx="252" cy="79.1" r="5"/><circle cx="252" cy="103.8" r="5"/><circle cx="252" cy="128.5" r="5"/><circle cx="227.3" cy="5" r="5"/><circle cx="227.3" cy="29.7" r="5"/><circle cx="227.3" cy="54.4" r="5"/><circle cx="227.3" cy="79.1" r="5"/><circle cx="227.3" cy="103.8" r="5"/><circle cx="227.3" cy="128.5" r="5"/><circle cx="202.6" cy="5" r="5"/><circle cx="202.6" cy="29.7" r="5"/><circle cx="202.6" cy="54.4" r="5"/><circle cx="202.6" cy="79.1" r="5"/><circle cx="202.6" cy="103.8" r="5"/><circle cx="202.6" cy="128.5" r="5"/><circle cx="177.9" cy="5" r="5"/><circle cx="177.9" cy="29.7" r="5"/><circle cx="177.9" cy="54.4" r="5"/><circle cx="177.9" cy="79.1" r="5"/><circle cx="177.9" cy="103.8" r="5"/><circle cx="177.9" cy="128.5" r="5"/><circle cx="153.2" cy="5" r="5"/><circle cx="153.2" cy="29.7" r="5"/><circle cx="153.2" cy="54.4" r="5"/><circle cx="153.2" cy="79.1" r="5"/><circle cx="153.2" cy="103.8" r="5"/><circle cx="153.2" cy="128.5" r="5"/><circle cx="128.5" cy="5" r="5"/><circle cx="128.5" cy="29.7" r="5"/><circle cx="128.5" cy="54.4" r="5"/><circle cx="128.5" cy="79.1" r="5"/><circle cx="128.5" cy="103.8" r="5"/><circle cx="128.5" cy="128.5" r="5"/><circle cx="103.8" cy="5" r="5"/><circle cx="103.8" cy="29.7" r="5"/><circle cx="103.8" cy="54.4" r="5"/><circle cx="103.8" cy="79.1" r="5"/><circle cx="103.8" cy="103.8" r="5"/><circle cx="103.8" cy="128.5" r="5"/><circle cx="79.1" cy="5" r="5"/><circle cx="79.1" cy="29.7" r="5"/><circle cx="79.1" cy="54.4" r="5"/><circle cx="79.1" cy="79.1" r="5"/><circle cx="79.1" cy="103.8" r="5"/><circle cx="79.1" cy="128.5" r="5"/><circle cx="54.4" cy="5" r="5"/><circle cx="54.4" cy="29.7" r="5"/><circle cx="54.4" cy="54.4" r="5"/><circle cx="54.4" cy="79.1" r="5"/><circle cx="54.4" cy="103.8" r="5"/><circle cx="54.4" cy="128.5" r="5"/><circle cx="29.7" cy="29.7" r="5"/><circle cx="29.7" cy="54.4" r="5"/><circle cx="29.7" cy="79.1" r="5"/><circle cx="29.7" cy="103.8" r="5"/><circle cx="5" cy="54.4" r="5"/><circle cx="5" cy="79.1" r="5"/></g></svg></g><g transform="translate(328.0 290.0) rotate(18.532318126826663 50.0 50.0) scale(0.91324200913242 0.91324200913242)"><svg width="109.5" height="109.5" viewBox="0 0 109.5 109.5"><path d="M78 104.5H31.5C16.8 104.5 5 92.6 5 78V31.5C5 16.8 16.9 5 31.5 5H78c14.7 0 26.5 11.9 26.5 26.5v46.4c.1 14.7-11.8 26.6-26.5 26.6z" fill="#AAC4FA"/><path d="M78 109.5H31.5C14.1 109.5 0 95.4 0 78V31.5C0 14.1 14.1 0 31.5 0H78c17.4 0 31.5 14.1 31.5 31.5v46.4c.1 8.4-3.2 16.3-9.1 22.3-6 6-13.9 9.3-22.4 9.3zM31.5 10C19.6 10 10 19.6 10 31.5V78c0 11.9 9.6 21.5 21.5 21.5H78c5.8 0 11.2-2.3 15.3-6.4 4-4.1 6.2-9.5 6.2-15.2V31.5C99.5 19.6 89.9 10 78 10z" fill="#383a48"/></svg></g><g transform="translate(708.0 335.0) rotate(-15.97680205288367 67.0 131.5) scale(3.048225659690628 3.0397595931576515)"><svg width="43.96" height="86.52" viewBox="0 0 43.96 86.52"><path d="M35.91 38.88c-4.63-.11-9.27-.15-13.91-.17h-6.22q1.26-2.13 2.5-4.26 3.21-5.58 6.27-11.25C28.61 15.67 32.54 8 35.91 0 30 6.38 24.67 13.14 19.44 20q-3.88 5.13-7.64 10.36c-2.5 3.49-4.94 7-7.36 10.55L0 47.39l8.08.15 7 .13h13.2q-4.54 7.68-8.81 15.54c-4.06 7.6-8 15.27-11.37 23.31 5.93-6.39 11.28-13.16 16.52-20s10.19-13.87 15-21L44 39.08z" fill="#F6E049"/></svg></g><g transform="translate(230.0 35.0) rotate(18.04636375210281 271.0 440.5) translate(0.0 343.67507538955425) scale(1.0262026455996478 1.0248018328714552)"><svg width="528.161" height="524.004" viewBox="0 335.358 528.161 524.004"><path d="m523.16 54.268-13.24 41.25-124.834-40.095a28.518 28.518 0 0 0-35.862 18.43l-39.14 121.91-18.302 56.958v.014l-5.573 17.36a62.867 62.867 0 0 1-56.444 35.165h-.584l36.703-114.343 2.508-7.796L314.46 39.644a49.895 49.895 0 0 1 62.758-32.242z" fill="#f3f6e6"/><path d="m287.964 248.898-1.75 21.2a62.867 62.867 0 0 1-56.445 35.163h-.584l25.499-64.615c-2.417 13.23 4.036 21.252 9.735 23.152 8.366 2.789 18.711-4.675 23.545-14.9z" fill="#383a47"/><path d="M435.644 387.617a25.41 25.41 0 0 1-6.514 49.973H30.4a25.414 25.414 0 0 1-6.514-49.973 25.821 25.821 0 0 1 6.514-.841h398.73a25.821 25.821 0 0 1 6.514.84z" fill="#aac4fa"/><path d="M435.658 385.407c0 .742 0 1.469-.014 2.21a25.821 25.821 0 0 0-6.514-.841H30.4a25.821 25.821 0 0 0-6.514.84c-.014-.74-.014-1.467-.014-2.209 0-113.173 91.308-205.009 204.268-205.878a62.877 62.877 0 0 0 1.04 125.73h.585a62.867 62.867 0 0 0 56.444-35.163 61.872 61.872 0 0 0 5.573-17.361v-.014l18.302-56.958a205.953 205.953 0 0 1 125.574 189.644z" fill="#aac4fa"/><path d="m428.93 438.003-85.521 416.675H116.121L30.599 438.003h398.274z" fill="#f3f6e6"/><path d="M231.39 179.529a62.568 62.568 0 0 1 34.493 11.388L229.18 305.26a62.877 62.877 0 0 1-1.04-125.73c.542-.015 1.083-.015 1.625-.015s1.083 0 1.625.015z" fill="#4247f5"/><path d="M30.666 443.015a5.02 5.02 0 0 1-4.796-3.569 9.294 9.294 0 0 1-.211-.85 5.034 5.034 0 1 1 5.007 4.42zm398.21-.01a5.244 5.244 0 1 1 5.002-4.441 9.321 9.321 0 0 1-.208.852 5.002 5.002 0 0 1-4.794 3.589zm6.77-50.388-.094-.001a5 5 0 0 1-4.907-5.091c.013-.71.013-1.407.013-2.118a200.659 200.659 0 0 0-122.527-185.04 5 5 0 1 1 3.905-9.207 210.642 210.642 0 0 1 128.622 194.247c0 .772 0 1.53-.015 2.302a5 5 0 0 1-4.997 4.908zm-411.762 0a5 5 0 0 1-4.997-4.901c-.015-.775-.015-1.534-.015-2.309a210.883 210.883 0 0 1 209.23-210.878 5 5 0 1 1 .076 10c-109.897.845-199.306 90.96-199.306 200.878 0 .708 0 1.403.013 2.111a5 5 0 0 1-4.9 5.098h-.1z" fill="#383a47"/><path d="M268.398 188.121a5.03 5.03 0 0 1-.934-.087 202.502 202.502 0 0 0-36.108-3.506 5 5 0 1 1 .068-10 212.531 212.531 0 0 1 37.896 3.68 5 5 0 0 1-.922 9.913z" fill="#383a47"/><path d="M229.765 310.26h-.585a67.877 67.877 0 0 1-1.168-135.73c1.16-.03 2.336-.03 3.51 0a67.517 67.517 0 0 1 37.238 12.298 5 5 0 1 1-5.754 8.179 57.549 57.549 0 0 0-31.744-10.48 52.691 52.691 0 0 0-1.497-.013c-.496 0-.995 0-1.493.013a57.877 57.877 0 0 0 .954 115.733h.54a57.528 57.528 0 0 0 51.956-32.37 56.845 56.845 0 0 0 5.126-15.97 5 5 0 0 1 9.867 1.63 67.85 67.85 0 0 1-66.95 56.71zM429.13 442.59H30.4a30.414 30.414 0 0 1-7.8-59.805 30.935 30.935 0 0 1 7.8-1.01h398.73a30.897 30.897 0 0 1 7.774 1.003l.02.005a30.41 30.41 0 0 1-7.795 59.807zM30.4 391.776a20.875 20.875 0 0 0-5.254.68 20.452 20.452 0 0 0-9.17 5.296A20.22 20.22 0 0 0 10 412.176a20.43 20.43 0 0 0 20.4 20.414h398.73a20.41 20.41 0 0 0 5.244-40.137 20.885 20.885 0 0 0-5.245-.677z" fill="#383a47"/><path d="M343.409 859.678H116.12a4.999 4.999 0 0 1-4.898-3.994l-85.52-416.676a4.999 4.999 0 0 1 4.897-6.005H428.93a4.999 4.999 0 0 1 4.898 6.005l-85.522 416.676a4.999 4.999 0 0 1-4.897 3.994zm-223.21-10H339.33l83.468-406.675H36.73zM229.181 310.26a5.004 5.004 0 0 1-4.761-6.529l39.212-122.142L309.7 38.115a54.957 54.957 0 0 1 69.048-35.474L524.69 49.507a5 5 0 0 1 3.232 6.29l-13.24 41.25a5 5 0 0 1-6.29 3.231L383.556 60.183a23.557 23.557 0 0 0-29.572 15.199l-39.14 121.91-18.245 56.776c-.017.066-.037.13-.057.195l-5.573 17.361a5 5 0 1 1-9.521-3.056l5.513-17.18q.028-.099.06-.197l18.3-56.957 39.141-121.91a33.57 33.57 0 0 1 42.149-21.663l120.075 38.567L516.872 57.5 375.69 12.163a44.95 44.95 0 0 0-56.47 29.01l-48.577 151.276-36.702 114.339a5.002 5.002 0 0 1-4.76 3.473z" fill="#383a47"/><g fill="#383a48"><ellipse cx="132.465" cy="816.735" rx="4.295" ry="4.281"/><ellipse cx="132.465" cy="837.883" rx="4.295" ry="4.281"/><ellipse cx="153.682" cy="816.735" rx="4.295" ry="4.281"/><ellipse cx="153.682" cy="837.883" rx="4.295" ry="4.281"/><ellipse cx="174.899" cy="816.735" rx="4.295" ry="4.281"/><ellipse cx="174.899" cy="837.883" rx="4.295" ry="4.281"/><ellipse cx="196.116" cy="816.735" rx="4.295" ry="4.281"/><ellipse cx="196.116" cy="837.883" rx="4.295" ry="4.281"/><ellipse cx="217.333" cy="816.735" rx="4.295" ry="4.281"/><ellipse cx="217.333" cy="837.883" rx="4.295" ry="4.281"/><ellipse cx="238.55" cy="816.735" rx="4.295" ry="4.281"/><ellipse cx="238.55" cy="837.883" rx="4.295" ry="4.281"/><ellipse cx="259.767" cy="795.587" rx="4.295" ry="4.281"/><ellipse cx="259.767" cy="816.735" rx="4.295" ry="4.281"/><ellipse cx="259.767" cy="837.883" rx="4.295" ry="4.281"/><ellipse cx="280.984" cy="774.439" rx="4.295" ry="4.281"/><ellipse cx="280.984" cy="795.587" rx="4.295" ry="4.281"/><ellipse cx="280.984" cy="816.735" rx="4.295" ry="4.281"/><ellipse cx="280.984" cy="837.883" rx="4.295" ry="4.281"/><ellipse cx="302.202" cy="753.29" rx="4.295" ry="4.281"/><ellipse cx="302.202" cy="774.439" rx="4.295" ry="4.281"/><ellipse cx="302.202" cy="795.587" rx="4.295" ry="4.281"/><ellipse cx="302.202" cy="816.735" rx="4.295" ry="4.281"/><ellipse cx="302.202" cy="837.883" rx="4.295" ry="4.281"/><ellipse cx="323.419" cy="689.846" rx="4.295" ry="4.281"/><ellipse cx="323.419" cy="710.994" rx="4.295" ry="4.281"/><ellipse cx="323.419" cy="732.142" rx="4.295" ry="4.281"/><ellipse cx="323.419" cy="753.29" rx="4.295" ry="4.281"/><ellipse cx="323.419" cy="774.439" rx="4.295" ry="4.281"/><ellipse cx="323.419" cy="795.587" rx="4.295" ry="4.281"/><ellipse cx="323.419" cy="816.735" rx="4.295" ry="4.281"/><ellipse cx="323.419" cy="837.883" rx="4.295" ry="4.281"/><ellipse cx="344.636" cy="584.105" rx="4.295" ry="4.281"/><ellipse cx="344.636" cy="605.253" rx="4.295" ry="4.281"/><ellipse cx="344.636" cy="626.401" rx="4.295" ry="4.281"/><ellipse cx="344.636" cy="647.549" rx="4.295" ry="4.281"/><ellipse cx="344.636" cy="668.698" rx="4.295" ry="4.281"/><ellipse cx="323.419" cy="605.253" rx="4.295" ry="4.281"/><ellipse cx="323.419" cy="626.401" rx="4.295" ry="4.281"/><ellipse cx="323.419" cy="647.549" rx="4.295" ry="4.281"/><ellipse cx="323.419" cy="668.698" rx="4.295" ry="4.281"/><ellipse cx="344.636" cy="689.846" rx="4.295" ry="4.281"/><ellipse cx="344.636" cy="710.994" rx="4.295" ry="4.281"/><ellipse cx="344.636" cy="732.142" rx="4.295" ry="4.281"/><ellipse cx="344.636" cy="753.29" rx="4.295" ry="4.281"/><ellipse cx="344.636" cy="774.439" rx="4.295" ry="4.281"/><ellipse cx="344.636" cy="795.587" rx="4.295" ry="4.281"/><ellipse cx="344.636" cy="816.735" rx="4.295" ry="4.281"/><ellipse cx="344.636" cy="837.883" rx="4.295" ry="4.281"/><ellipse cx="365.853" cy="457.216" rx="4.295" ry="4.281"/><ellipse cx="365.853" cy="478.364" rx="4.295" ry="4.281"/><ellipse cx="365.853" cy="499.512" rx="4.295" ry="4.281"/><ellipse cx="365.853" cy="520.66" rx="4.295" ry="4.281"/><ellipse cx="365.853" cy="541.808" rx="4.295" ry="4.281"/><ellipse cx="365.853" cy="562.957" rx="4.295" ry="4.281"/><ellipse cx="365.853" cy="584.105" rx="4.295" ry="4.281"/><ellipse cx="365.853" cy="605.253" rx="4.295" ry="4.281"/><ellipse cx="365.853" cy="626.401" rx="4.295" ry="4.281"/><ellipse cx="365.853" cy="647.549" rx="4.295" ry="4.281"/><ellipse cx="365.853" cy="668.698" rx="4.295" ry="4.281"/><ellipse cx="365.853" cy="689.846" rx="4.295" ry="4.281"/><ellipse cx="365.853" cy="710.994" rx="4.295" ry="4.281"/><ellipse cx="387.07" cy="457.216" rx="4.295" ry="4.281"/><ellipse cx="387.07" cy="478.364" rx="4.295" ry="4.281"/><ellipse cx="387.07" cy="499.512" rx="4.295" ry="4.281"/><ellipse cx="387.07" cy="520.66" rx="4.295" ry="4.281"/><ellipse cx="387.07" cy="541.808" rx="4.295" ry="4.281"/><ellipse cx="387.07" cy="562.957" rx="4.295" ry="4.281"/><ellipse cx="387.07" cy="584.105" rx="4.295" ry="4.281"/><ellipse cx="387.07" cy="605.253" rx="4.295" ry="4.281"/><ellipse cx="408.287" cy="457.216" rx="4.295" ry="4.281"/><ellipse cx="408.287" cy="478.364" rx="4.295" ry="4.281"/><ellipse cx="408.287" cy="499.512" rx="4.295" ry="4.281"/><ellipse cx="408.287" cy="520.66" rx="4.295" ry="4.281"/></g><path d="m276.401 291.714 75.218-72.29-39.945-28.614z" fill="#383a47"/></svg></g><g transform="translate(781.0 201.0) rotate(5.962911377006985 98.5 195.5) scale(4.481346678798908 4.519186315302821)"><svg width="43.96" height="86.52" viewBox="0 0 43.96 86.52"><path d="M35.91 38.88c-4.63-.11-9.27-.15-13.91-.17h-6.22q1.26-2.13 2.5-4.26 3.21-5.58 6.27-11.25C28.61 15.67 32.54 8 35.91 0 30 6.38 24.67 13.14 19.44 20q-3.88 5.13-7.64 10.36c-2.5 3.49-4.94 7-7.36 10.55L0 47.39l8.08.15 7 .13h13.2q-4.54 7.68-8.81 15.54c-4.06 7.6-8 15.27-11.37 23.31 5.93-6.39 11.28-13.16 16.52-20s10.19-13.87 15-21L44 39.08z" fill="#F6E049"/></svg></g><g transform="translate(438.0 149.0) rotate(17.013295548707013 122.5 77.5) scale(0.6046396841066141 0.603112840466926)"><svg width="405.2" height="257" viewBox="0 0 405.2 257"><g fill="#383a48"><circle cx="400.2" cy="54.4" r="5"/><circle cx="400.2" cy="79.1" r="5"/><circle cx="400.2" cy="103.8" r="5"/><circle cx="400.2" cy="128.5" r="5"/><circle cx="400.2" cy="153.2" r="5"/><circle cx="400.2" cy="177.9" r="5"/><circle cx="375.5" cy="29.7" r="5"/><circle cx="375.5" cy="54.4" r="5"/><circle cx="375.5" cy="79.1" r="5"/><circle cx="375.5" cy="103.8" r="5"/><circle cx="375.5" cy="128.5" r="5"/><circle cx="375.5" cy="153.2" r="5"/><circle cx="375.5" cy="177.9" r="5"/><circle cx="375.5" cy="202.6" r="5"/><circle cx="350.8" cy="5" r="5"/><circle cx="350.8" cy="29.7" r="5"/><circle cx="350.8" cy="54.4" r="5"/><circle cx="350.8" cy="79.1" r="5"/><circle cx="350.8" cy="103.8" r="5"/><circle cx="350.8" cy="128.5" r="5"/><circle cx="350.8" cy="153.2" r="5"/><circle cx="350.8" cy="177.9" r="5"/><circle cx="350.8" cy="202.6" r="5"/><circle cx="350.8" cy="227.3" r="5"/><circle cx="326.1" cy="5" r="5"/><circle cx="326.1" cy="29.7" r="5"/><circle cx="326.1" cy="54.4" r="5"/><circle cx="326.1" cy="79.1" r="5"/><circle cx="326.1" cy="103.8" r="5"/><circle cx="326.1" cy="128.5" r="5"/><circle cx="326.1" cy="153.2" r="5"/><circle cx="326.1" cy="177.9" r="5"/><circle cx="326.1" cy="202.6" r="5"/><circle cx="326.1" cy="227.3" r="5"/><circle cx="301.4" cy="5" r="5"/><circle cx="301.4" cy="29.7" r="5"/><circle cx="301.4" cy="54.4" r="5"/><circle cx="301.4" cy="79.1" r="5"/><circle cx="301.4" cy="103.8" r="5"/><circle cx="301.4" cy="128.5" r="5"/><circle cx="301.4" cy="153.2" r="5"/><circle cx="301.4" cy="177.9" r="5"/><circle cx="301.4" cy="202.6" r="5"/><circle cx="301.4" cy="227.3" r="5"/><circle cx="276.7" cy="5" r="5"/><circle cx="276.7" cy="29.7" r="5"/><circle cx="276.7" cy="54.4" r="5"/><circle cx="276.7" cy="79.1" r="5"/><circle cx="276.7" cy="103.8" r="5"/><circle cx="276.7" cy="128.5" r="5"/><circle cx="276.7" cy="153.2" r="5"/><circle cx="276.7" cy="177.9" r="5"/><circle cx="276.7" cy="202.6" r="5"/><circle cx="276.7" cy="227.3" r="5"/><circle cx="252" cy="5" r="5"/><circle cx="252" cy="29.7" r="5"/><circle cx="252" cy="54.4" r="5"/><circle cx="252" cy="79.1" r="5"/><circle cx="252" cy="103.8" r="5"/><circle cx="252" cy="128.5" r="5"/><circle cx="252" cy="153.2" r="5"/><circle cx="252" cy="177.9" r="5"/><circle cx="252" cy="202.6" r="5"/><circle cx="252" cy="227.3" r="5"/><circle cx="227.3" cy="5" r="5"/><circle cx="227.3" cy="29.7" r="5"/><circle cx="227.3" cy="54.4" r="5"/><circle cx="227.3" cy="79.1" r="5"/><circle cx="227.3" cy="103.8" r="5"/><circle cx="227.3" cy="128.5" r="5"/><circle cx="227.3" cy="153.2" r="5"/><circle cx="227.3" cy="177.9" r="5"/><circle cx="227.3" cy="202.6" r="5"/><circle cx="227.3" cy="227.3" r="5"/><circle cx="202.6" cy="5" r="5"/><circle cx="202.6" cy="29.7" r="5"/><circle cx="202.6" cy="54.4" r="5"/><circle cx="202.6" cy="79.1" r="5"/><circle cx="202.6" cy="103.8" r="5"/><circle cx="202.6" cy="128.5" r="5"/><circle cx="202.6" cy="153.2" r="5"/><circle cx="202.6" cy="177.9" r="5"/><circle cx="202.6" cy="202.6" r="5"/><circle cx="202.6" cy="227.3" r="5"/><circle cx="177.9" cy="5" r="5"/><circle cx="177.9" cy="29.7" r="5"/><circle cx="177.9" cy="54.4" r="5"/><circle cx="177.9" cy="79.1" r="5"/><circle cx="177.9" cy="103.8" r="5"/><circle cx="177.9" cy="128.5" r="5"/><circle cx="177.9" cy="153.2" r="5"/><circle cx="177.9" cy="177.9" r="5"/><circle cx="177.9" cy="202.6" r="5"/><circle cx="177.9" cy="227.3" r="5"/><circle cx="153.2" cy="5" r="5"/><circle cx="153.2" cy="29.7" r="5"/><circle cx="153.2" cy="54.4" r="5"/><circle cx="153.2" cy="79.1" r="5"/><circle cx="153.2" cy="103.8" r="5"/><circle cx="153.2" cy="128.5" r="5"/><circle cx="153.2" cy="153.2" r="5"/><circle cx="153.2" cy="177.9" r="5"/><circle cx="153.2" cy="202.6" r="5"/><circle cx="153.2" cy="227.3" r="5"/><circle cx="128.5" cy="5" r="5"/><circle cx="128.5" cy="29.7" r="5"/><circle cx="128.5" cy="54.4" r="5"/><circle cx="128.5" cy="79.1" r="5"/><circle cx="128.5" cy="103.8" r="5"/><circle cx="128.5" cy="128.5" r="5"/><circle cx="128.5" cy="153.2" r="5"/><circle cx="128.5" cy="177.9" r="5"/><circle cx="128.5" cy="202.6" r="5"/><circle cx="128.5" cy="227.3" r="5"/><circle cx="103.8" cy="29.7" r="5"/><circle cx="103.8" cy="54.4" r="5"/><circle cx="103.8" cy="79.1" r="5"/><circle cx="103.8" cy="103.8" r="5"/><circle cx="103.8" cy="128.5" r="5"/><circle cx="103.8" cy="153.2" r="5"/><circle cx="103.8" cy="177.9" r="5"/><circle cx="103.8" cy="202.6" r="5"/><circle cx="103.8" cy="227.3" r="5"/><circle cx="79.1" cy="54.4" r="5"/><circle cx="79.1" cy="79.1" r="5"/><circle cx="79.1" cy="103.8" r="5"/><circle cx="79.1" cy="128.5" r="5"/><circle cx="79.1" cy="153.2" r="5"/><circle cx="79.1" cy="177.9" r="5"/><circle cx="79.1" cy="202.6" r="5"/><circle cx="79.1" cy="227.3" r="5"/><circle cx="54.4" cy="177.9" r="5"/><circle cx="54.4" cy="202.6" r="5"/><circle cx="54.4" cy="227.3" r="5"/><circle cx="29.7" cy="202.6" r="5"/><circle cx="29.7" cy="227.3" r="5"/><circle cx="29.7" cy="252" r="5"/><circle cx="5" cy="227.3" r="5"/><circle cx="5" cy="252" r="5"/></g></svg></g><g transform="translate(792.0 308.0) rotate(-60.286432408347956 -323.5 323.5) translate(-66.8673029531991 41.3321834421003) scale(-0.9597341818154849 0.9597897066633437)"><svg width="408.446" height="421.967" viewBox="69.673 43.064 408.446 421.967"><path d="M60.133 674.106c-19.1 0-34.1-5.1-44.6-15.6-27.2-27.2-18.5-86.4 24.7-166.6 42.2-78.5 112.4-168.7 197.7-254s175.5-155.5 254-197.7c80.2-43.1 139.4-51.9 166.6-24.7 32.7 32.7 13.5 110.6-52.6 214l-8.4-5.4c62.4-97.6 82.6-172.9 54-201.5-23.5-23.5-79.9-13.9-154.8 26.4-77.7 41.8-167.1 111.4-251.7 196s-154.2 174-196 251.7c-40.3 74.9-49.9 131.3-26.4 154.8 28.6 28.6 103.9 8.4 201.5-54l5.4 8.4c-70.3 44.9-128.9 68.2-169.4 68.2z" fill="#383a48"/></svg></g><g transform="translate(96.0 466.0) rotate(11.777966386272546 163.0 134.0) scale(0.42438136002509835 0.42361696174960123)"><svg width="768.177" height="632.647" viewBox="0 0 768.177 632.647"><path d="m263.709 609.147 5.1 18.4 154.8-103.5a74.05 74.05 0 0 0 20.4-102.7l-3.5-5.2-139.8 93.5a90.739 90.739 0 0 0-37 99.5z" fill="#e0719e"/><path d="M268.809 632.647a4.671 4.671 0 0 1-1.7-.3 5.26 5.26 0 0 1-3.1-3.4l-5.1-18.4a95.471 95.471 0 0 1 39-104.9l139.8-93.5a5.072 5.072 0 0 1 3.8-.7 5.354 5.354 0 0 1 3.2 2.1l3.5 5.2a79.022 79.022 0 0 1-21.8 109.6l-154.8 103.4a4.9 4.9 0 0 1-2.8.9zm170.3-209.4-135.7 90.7a85.345 85.345 0 0 0-34.9 93.9l3.2 11.8 149-99.6a69.032 69.032 0 0 0 19-95.7z" fill="#383a48"/><path d="m20.109 244.747-15.1-11.8 154.8-103.5a74.068 74.068 0 0 1 102.7 20.4l3.5 5.2-139.9 93.5a90.578 90.578 0 0 1-106-3.8z" fill="#e0719e"/><path d="M75.709 268.847a95.385 95.385 0 0 1-58.7-20.2l-15.1-11.7a4.756 4.756 0 0 1-1.9-4.1 5.262 5.262 0 0 1 2.2-4l154.8-103.5a79.022 79.022 0 0 1 109.6 21.8l3.5 5.2a5.072 5.072 0 0 1 .7 3.8 5.354 5.354 0 0 1-2.1 3.2l-139.8 93.5a96.335 96.335 0 0 1-53.2 16zm-52.5-28.1a85.313 85.313 0 0 0 100.1 3.6l135.7-90.7-.7-1a69.032 69.032 0 0 0-95.7-19l-149 99.6z" fill="#383a48"/><path d="m129.257 246.467 86.05-57.514 174.6 261.227-86.05 57.514z" fill="#f3f6e6"/><path d="M303.809 512.547a2.769 2.769 0 0 1-.9-.1 4.734 4.734 0 0 1-3.1-2l-174.6-261.3a4.829 4.829 0 0 1 1.3-6.7l86-57.5a4.666 4.666 0 0 1 3.6-.7 4.734 4.734 0 0 1 3.1 2l174.6 261.2a4.829 4.829 0 0 1-1.3 6.7l-86 57.5a4.6 4.6 0 0 1-2.7.9zm-167.9-264.8 169.2 253.3 78-52.2-169.2-253.2z" fill="#383a48"/><path d="m389.809 450.147-174.6-261.2 140.3-93.8c114-76.2 218.4-94.7 351.7-89.3l55.9 2.2-17.6 50.6c-45 129.5-103.5 223-220.8 301.4z" fill="#f6e049"/><path d="M389.809 455.147a5.218 5.218 0 0 1-4.2-2.2l-174.5-261.2a5.072 5.072 0 0 1-.7-3.8 5.354 5.354 0 0 1 2.1-3.2l140.3-93.8c55.6-37.2 111.3-62 170.2-75.9 53.3-12.6 111.9-17.1 184.5-14.2l55.9 2.2a5.053 5.053 0 0 1 4.5 6.7l-17.6 50.6c-24.4 70.3-51.1 124.7-83.9 171.1-36.1 51.1-81.5 94.5-138.8 132.8l-135 90.2a5.3 5.3 0 0 1-2.8.7zm-167.6-264.8 169.1 252.9 130.8-87.4c56.3-37.6 100.8-80.2 136.2-130.2 32.3-45.6 58.6-99.2 82.6-168.6l15.3-44.2-49.2-2c-71.6-2.9-129.4 1.6-181.8 14-57.8 13.7-112.4 38-167 74.5z" fill="#383a48"/><circle cx="499.009" cy="188.247" fill="#aac6fc" r="57.6"/><path d="M499.109 250.847a62.58 62.58 0 1 1 34.7-10.5 62.177 62.177 0 0 1-34.7 10.5zm-.1-115.3a52.637 52.637 0 1 0 29.3 96.4 52.645 52.645 0 0 0-29.3-96.4z" fill="#383a48"/><path d="M460.709 189.647h-.5a5.043 5.043 0 0 1-4.5-5.5 44.255 44.255 0 0 1 6.4-19 5.008 5.008 0 1 1 8.5 5.3 33.459 33.459 0 0 0-5 14.7 4.838 4.838 0 0 1-4.9 4.5z" fill="#f3f6e6"/><path d="m116.874 400.363 216.332-144.592 39.788 59.529-216.332 144.592z" fill="#e0719e"/><path d="M156.709 464.847a5.218 5.218 0 0 1-4.2-2.2l-39.8-59.5a5.072 5.072 0 0 1-.7-3.8 5.354 5.354 0 0 1 2.1-3.2l216.3-144.6a5.072 5.072 0 0 1 3.8-.7 5.354 5.354 0 0 1 3.2 2.1l39.8 59.5a4.983 4.983 0 0 1-1.4 6.9l-216.3 144.7a5 5 0 0 1-2.8.8zm-32.9-63.1 34.3 51.2 208-139-34.2-51.2z" fill="#383a48"/></svg></g><g transform="translate(668.0 46.0) rotate(17.013295548707013 97.0 97.0) scale(0.5859257022047719 0.5859257022047719)"><svg width="331.1" height="331.1" viewBox="0 0 331.1 331.1"><g fill="#383a48"><circle cx="326.1" cy="128.5" r="5"/><circle cx="326.1" cy="153.2" r="5"/><circle cx="326.1" cy="177.9" r="5"/><circle cx="326.1" cy="202.6" r="5"/><circle cx="301.4" cy="79.1" r="5"/><circle cx="301.4" cy="103.8" r="5"/><circle cx="301.4" cy="128.5" r="5"/><circle cx="301.4" cy="153.2" r="5"/><circle cx="301.4" cy="177.9" r="5"/><circle cx="301.4" cy="202.6" r="5"/><circle cx="301.4" cy="227.3" r="5"/><circle cx="301.4" cy="252" r="5"/><circle cx="276.7" cy="54.4" r="5"/><circle cx="276.7" cy="79.1" r="5"/><circle cx="276.7" cy="103.8" r="5"/><circle cx="276.7" cy="128.5" r="5"/><circle cx="276.7" cy="153.2" r="5"/><circle cx="276.7" cy="177.9" r="5"/><circle cx="276.7" cy="202.6" r="5"/><circle cx="276.7" cy="227.3" r="5"/><circle cx="276.7" cy="252" r="5"/><circle cx="276.7" cy="276.7" r="5"/><circle cx="252" cy="29.7" r="5"/><circle cx="252" cy="54.4" r="5"/><circle cx="252" cy="79.1" r="5"/><circle cx="252" cy="103.8" r="5"/><circle cx="252" cy="128.5" r="5"/><circle cx="252" cy="153.2" r="5"/><circle cx="252" cy="177.9" r="5"/><circle cx="252" cy="202.6" r="5"/><circle cx="252" cy="227.3" r="5"/><circle cx="252" cy="252" r="5"/><circle cx="252" cy="276.7" r="5"/><circle cx="252" cy="301.4" r="5"/><circle cx="227.3" cy="29.7" r="5"/><circle cx="227.3" cy="54.4" r="5"/><circle cx="227.3" cy="79.1" r="5"/><circle cx="227.3" cy="103.8" r="5"/><circle cx="227.3" cy="128.5" r="5"/><circle cx="227.3" cy="153.2" r="5"/><circle cx="227.3" cy="177.9" r="5"/><circle cx="227.3" cy="202.6" r="5"/><circle cx="227.3" cy="227.3" r="5"/><circle cx="227.3" cy="252" r="5"/><circle cx="227.3" cy="276.7" r="5"/><circle cx="227.3" cy="301.4" r="5"/><circle cx="202.6" cy="5" r="5"/><circle cx="202.6" cy="29.7" r="5"/><circle cx="202.6" cy="54.4" r="5"/><circle cx="202.6" cy="79.1" r="5"/><circle cx="202.6" cy="103.8" r="5"/><circle cx="202.6" cy="128.5" r="5"/><circle cx="202.6" cy="153.2" r="5"/><circle cx="202.6" cy="177.9" r="5"/><circle cx="202.6" cy="202.6" r="5"/><circle cx="202.6" cy="227.3" r="5"/><circle cx="202.6" cy="252" r="5"/><circle cx="202.6" cy="276.7" r="5"/><circle cx="202.6" cy="301.4" r="5"/><circle cx="202.6" cy="326.1" r="5"/><circle cx="177.9" cy="5" r="5"/><circle cx="177.9" cy="29.7" r="5"/><circle cx="177.9" cy="54.4" r="5"/><circle cx="177.9" cy="79.1" r="5"/><circle cx="177.9" cy="103.8" r="5"/><circle cx="177.9" cy="128.5" r="5"/><circle cx="177.9" cy="153.2" r="5"/><circle cx="177.9" cy="177.9" r="5"/><circle cx="177.9" cy="202.6" r="5"/><circle cx="177.9" cy="227.3" r="5"/><circle cx="177.9" cy="252" r="5"/><circle cx="177.9" cy="276.7" r="5"/><circle cx="177.9" cy="301.4" r="5"/><circle cx="177.9" cy="326.1" r="5"/><circle cx="153.2" cy="5" r="5"/><circle cx="153.2" cy="29.7" r="5"/><circle cx="153.2" cy="54.4" r="5"/><circle cx="153.2" cy="79.1" r="5"/><circle cx="153.2" cy="103.8" r="5"/><circle cx="153.2" cy="128.5" r="5"/><circle cx="153.2" cy="153.2" r="5"/><circle cx="153.2" cy="177.9" r="5"/><circle cx="153.2" cy="202.6" r="5"/><circle cx="153.2" cy="227.3" r="5"/><circle cx="153.2" cy="252" r="5"/><circle cx="153.2" cy="276.7" r="5"/><circle cx="153.2" cy="301.4" r="5"/><circle cx="153.2" cy="326.1" r="5"/><circle cx="128.5" cy="5" r="5"/><circle cx="128.5" cy="29.7" r="5"/><circle cx="128.5" cy="54.4" r="5"/><circle cx="128.5" cy="79.1" r="5"/><circle cx="128.5" cy="103.8" r="5"/><circle cx="128.5" cy="128.5" r="5"/><circle cx="128.5" cy="153.2" r="5"/><circle cx="128.5" cy="177.9" r="5"/><circle cx="128.5" cy="202.6" r="5"/><circle cx="128.5" cy="227.3" r="5"/><circle cx="128.5" cy="252" r="5"/><circle cx="128.5" cy="276.7" r="5"/><circle cx="128.5" cy="301.4" r="5"/><circle cx="128.5" cy="326.1" r="5"/><circle cx="103.8" cy="29.7" r="5"/><circle cx="103.8" cy="54.4" r="5"/><circle cx="103.8" cy="79.1" r="5"/><circle cx="103.8" cy="103.8" r="5"/><circle cx="103.8" cy="128.5" r="5"/><circle cx="103.8" cy="153.2" r="5"/><circle cx="103.8" cy="177.9" r="5"/><circle cx="103.8" cy="202.6" r="5"/><circle cx="103.8" cy="227.3" r="5"/><circle cx="103.8" cy="252" r="5"/><circle cx="103.8" cy="276.7" r="5"/><circle cx="103.8" cy="301.4" r="5"/><circle cx="79.1" cy="29.7" r="5"/><circle cx="79.1" cy="54.4" r="5"/><circle cx="79.1" cy="79.1" r="5"/><circle cx="79.1" cy="103.8" r="5"/><circle cx="79.1" cy="128.5" r="5"/><circle cx="79.1" cy="153.2" r="5"/><circle cx="79.1" cy="177.9" r="5"/><circle cx="79.1" cy="202.6" r="5"/><circle cx="79.1" cy="227.3" r="5"/><circle cx="79.1" cy="252" r="5"/><circle cx="79.1" cy="276.7" r="5"/><circle cx="79.1" cy="301.4" r="5"/><circle cx="54.4" cy="54.4" r="5"/><circle cx="54.4" cy="79.1" r="5"/><circle cx="54.4" cy="103.8" r="5"/><circle cx="54.4" cy="128.5" r="5"/><circle cx="54.4" cy="153.2" r="5"/><circle cx="54.4" cy="177.9" r="5"/><circle cx="54.4" cy="202.6" r="5"/><circle cx="54.4" cy="227.3" r="5"/><circle cx="54.4" cy="252" r="5"/><circle cx="54.4" cy="276.7" r="5"/><circle cx="29.7" cy="79.1" r="5"/><circle cx="29.7" cy="103.8" r="5"/><circle cx="29.7" cy="128.5" r="5"/><circle cx="29.7" cy="153.2" r="5"/><circle cx="29.7" cy="177.9" r="5"/><circle cx="29.7" cy="202.6" r="5"/><circle cx="29.7" cy="227.3" r="5"/><circle cx="29.7" cy="252" r="5"/><circle cx="5" cy="128.5" r="5"/><circle cx="5" cy="153.2" r="5"/><circle cx="5" cy="177.9" r="5"/><circle cx="5" cy="202.6" r="5"/></g></svg></g><g transform="translate(348.0 223.0) rotate(-27.066201485217707 150.0 150.0) scale(0.9377930603313536 0.9380863039399624)"><svg width="319.9" height="319.8" viewBox="0 0 319.9 319.8"><path d="M314.9 319.8c-1.3 0-2.6-.5-3.5-1.5L1.5 8.5c-2-2-2-5.1 0-7.1s5.1-2 7.1 0l309.9 309.8c2 2 2 5.1 0 7.1-1 1-2.3 1.5-3.6 1.5z" fill="#383A48"/></svg></g></svg>